<svg width="56" height="58" viewBox="0 0 56 58" fill="none" xmlns="http://www.w3.org/2000/svg">
<path d="M35.3281 33.6709C35.3281 33.8167 35.319 33.9626 35.3008 34.1084C35.2826 34.2542 35.2734 34.3818 35.2734 34.4912L44.0234 44.7178C45.0443 43.6605 45.9375 42.5303 46.7031 41.3271C47.5052 40.0876 48.1797 38.7933 48.7266 37.4443C49.2734 36.0954 49.6927 34.6735 49.9844 33.1787C50.276 31.7204 50.4219 30.2074 50.4219 28.6396C50.4219 25.3949 49.8021 22.3506 48.5625 19.5068C47.3229 16.6266 45.6458 14.1292 43.5312 12.0146C41.4167 9.90007 38.9193 8.22298 36.0391 6.9834C33.1953 5.74382 30.151 5.12402 26.9062 5.12402C24.4271 5.12402 22.0573 5.48861 19.7969 6.21777C17.5365 6.94694 15.4583 7.96777 13.5625 9.28027L21.2188 18.1943C21.7656 17.7933 22.3854 17.4743 23.0781 17.2373C23.7708 17.0003 24.4818 16.8818 25.2109 16.8818V13.5459C25.2109 13.0719 25.375 12.6709 25.7031 12.3428C26.0312 12.0146 26.4323 11.8506 26.9062 11.8506C27.3802 11.8506 27.7812 12.0146 28.1094 12.3428C28.4375 12.6709 28.6016 13.0719 28.6016 13.5459V16.8818C30.4609 16.8818 32.0469 17.5381 33.3594 18.8506C34.6719 20.1631 35.3281 21.749 35.3281 23.6084C35.3281 24.0824 35.1641 24.4834 34.8359 24.8115C34.5078 25.1396 34.1068 25.3037 33.6328 25.3037C33.1589 25.3037 32.7578 25.1396 32.4297 24.8115C32.1016 24.4834 31.9375 24.0824 31.9375 23.6084C31.9375 22.6605 31.6094 21.8584 30.9531 21.2021C30.2969 20.5459 29.513 20.2178 28.6016 20.2178H25.2109C24.8828 20.2178 24.5638 20.2633 24.2539 20.3545C23.944 20.4456 23.6615 20.5824 23.4062 20.7646L29.2031 27.4912L31.5 28.0381C32.6302 28.3298 33.5508 28.9313 34.2617 29.8428C34.9727 30.7542 35.3281 31.7933 35.3281 32.96V33.6709ZM33.9062 37.7725C33.3229 38.5745 32.5664 39.2126 31.6367 39.6865C30.707 40.1605 29.6953 40.3975 28.6016 40.3975V43.7334C28.6016 44.2074 28.4375 44.6084 28.1094 44.9365C27.7812 45.2646 27.3802 45.4287 26.9062 45.4287C26.4323 45.4287 26.0312 45.2646 25.7031 44.9365C25.375 44.6084 25.2109 44.2074 25.2109 43.7334V40.3975C23.3516 40.3975 21.7656 39.7412 20.4531 38.4287C19.1406 37.1162 18.4844 35.5303 18.4844 33.6709C18.4844 33.1969 18.6484 32.7959 18.9766 32.4678C19.3047 32.1396 19.7057 31.9756 20.1797 31.9756C20.6536 31.9756 21.0547 32.1396 21.3828 32.4678C21.7109 32.7959 21.875 33.1969 21.875 33.6709C21.875 34.6188 22.2031 35.4209 22.8594 36.0771C23.5156 36.7334 24.2995 37.0615 25.2109 37.0615H28.6016C29.2578 37.0615 29.8503 36.8883 30.3789 36.542C30.9076 36.1956 31.3177 35.7308 31.6094 35.1475L27.3984 30.499L22.3125 29.2412C21.1823 28.9495 20.2617 28.348 19.5508 27.4365C18.8398 26.5251 18.4844 25.486 18.4844 24.3193V23.6084C18.4844 23.1709 18.5299 22.7516 18.6211 22.3506C18.7122 21.9495 18.8307 21.5485 18.9766 21.1475L10.5 11.7959C9.40625 12.8532 8.42188 14.0199 7.54688 15.2959C6.67188 16.5719 5.92448 17.9209 5.30469 19.3428C4.6849 20.7646 4.21094 22.2594 3.88281 23.8271C3.55469 25.3949 3.39062 26.999 3.39062 28.6396C3.39062 31.8844 4.01042 34.9287 5.25 37.7725C6.48958 40.6527 8.16667 43.1501 10.2812 45.2646C12.3958 47.3792 14.8932 49.0563 17.7734 50.2959C20.6172 51.5355 23.6615 52.1553 26.9062 52.1553C29.7865 52.1553 32.5117 51.6722 35.082 50.7061C37.6523 49.7399 39.9583 48.4001 42 46.6865L33.9062 37.7725ZM21.875 24.374L23.3516 26.0146L23.1328 25.96C22.7682 25.887 22.4674 25.7048 22.2305 25.4131C21.9935 25.1214 21.875 24.7751 21.875 24.374ZM26.9062 1.7334C30.625 1.7334 34.1068 2.44434 37.3516 3.86621C40.6328 5.28809 43.4857 7.21126 45.9102 9.63574C48.3346 12.0602 50.2578 14.9131 51.6797 18.1943C53.1016 21.4391 53.8125 24.9209 53.8125 28.6396C53.8125 32.3584 53.1016 35.8402 51.6797 39.085C50.2578 42.3662 48.3346 45.2191 45.9102 47.6436C43.4857 50.068 40.6328 51.9912 37.3516 53.4131C34.1068 54.835 30.625 55.5459 26.9062 55.5459C23.1875 55.5459 19.7057 54.835 16.4609 53.4131C13.1797 51.9912 10.3268 50.068 7.90234 47.6436C5.47786 45.2191 3.55469 42.3662 2.13281 39.085C0.710938 35.8402 0 32.3584 0 28.6396C0 24.9209 0.710938 21.4391 2.13281 18.1943C3.55469 14.9131 5.47786 12.0602 7.90234 9.63574C10.3268 7.21126 13.1797 5.28809 16.4609 3.86621C19.7057 2.44434 23.1875 1.7334 26.9062 1.7334ZM35.3281 33.6709C35.3281 33.8167 35.319 33.9626 35.3008 34.1084C35.2826 34.2542 35.2734 34.3818 35.2734 34.4912L44.0234 44.7178C45.0443 43.6605 45.9375 42.5303 46.7031 41.3271C47.5052 40.0876 48.1797 38.7933 48.7266 37.4443C49.2734 36.0954 49.6927 34.6735 49.9844 33.1787C50.276 31.7204 50.4219 30.2074 50.4219 28.6396C50.4219 25.3949 49.8021 22.3506 48.5625 19.5068C47.3229 16.6266 45.6458 14.1292 43.5312 12.0146C41.4167 9.90007 38.9193 8.22298 36.0391 6.9834C33.1953 5.74382 30.151 5.12402 26.9062 5.12402C24.4271 5.12402 22.0573 5.48861 19.7969 6.21777C17.5365 6.94694 15.4583 7.96777 13.5625 9.28027L21.2188 18.1943C21.7656 17.7933 22.3854 17.4743 23.0781 17.2373C23.7708 17.0003 24.4818 16.8818 25.2109 16.8818V13.5459C25.2109 13.0719 25.375 12.6709 25.7031 12.3428C26.0312 12.0146 26.4323 11.8506 26.9062 11.8506C27.3802 11.8506 27.7812 12.0146 28.1094 12.3428C28.4375 12.6709 28.6016 13.0719 28.6016 13.5459V16.8818C30.4609 16.8818 32.0469 17.5381 33.3594 18.8506C34.6719 20.1631 35.3281 21.749 35.3281 23.6084C35.3281 24.0824 35.1641 24.4834 34.8359 24.8115C34.5078 25.1396 34.1068 25.3037 33.6328 25.3037C33.1589 25.3037 32.7578 25.1396 32.4297 24.8115C32.1016 24.4834 31.9375 24.0824 31.9375 23.6084C31.9375 22.6605 31.6094 21.8584 30.9531 21.2021C30.2969 20.5459 29.513 20.2178 28.6016 20.2178H25.2109C24.8828 20.2178 24.5638 20.2633 24.2539 20.3545C23.944 20.4456 23.6615 20.5824 23.4062 20.7646L29.2031 27.4912L31.5 28.0381C32.6302 28.3298 33.5508 28.9313 34.2617 29.8428C34.9727 30.7542 35.3281 31.7933 35.3281 32.96V33.6709ZM33.9062 37.7725C33.3229 38.5745 32.5664 39.2126 31.6367 39.6865C30.707 40.1605 29.6953 40.3975 28.6016 40.3975V43.7334C28.6016 44.2074 28.4375 44.6084 28.1094 44.9365C27.7812 45.2646 27.3802 45.4287 26.9062 45.4287C26.4323 45.4287 26.0312 45.2646 25.7031 44.9365C25.375 44.6084 25.2109 44.2074 25.2109 43.7334V40.3975C23.3516 40.3975 21.7656 39.7412 20.4531 38.4287C19.1406 37.1162 18.4844 35.5303 18.4844 33.6709C18.4844 33.1969 18.6484 32.7959 18.9766 32.4678C19.3047 32.1396 19.7057 31.9756 20.1797 31.9756C20.6536 31.9756 21.0547 32.1396 21.3828 32.4678C21.7109 32.7959 21.875 33.1969 21.875 33.6709C21.875 34.6188 22.2031 35.4209 22.8594 36.0771C23.5156 36.7334 24.2995 37.0615 25.2109 37.0615H28.6016C29.2578 37.0615 29.8503 36.8883 30.3789 36.542C30.9076 36.1956 31.3177 35.7308 31.6094 35.1475L27.3984 30.499L22.3125 29.2412C21.1823 28.9495 20.2617 28.348 19.5508 27.4365C18.8398 26.5251 18.4844 25.486 18.4844 24.3193V23.6084C18.4844 23.1709 18.5299 22.7516 18.6211 22.3506C18.7122 21.9495 18.8307 21.5485 18.9766 21.1475L10.5 11.7959C9.40625 12.8532 8.42188 14.0199 7.54688 15.2959C6.67188 16.5719 5.92448 17.9209 5.30469 19.3428C4.6849 20.7646 4.21094 22.2594 3.88281 23.8271C3.55469 25.3949 3.39062 26.999 3.39062 28.6396C3.39062 31.8844 4.01042 34.9287 5.25 37.7725C6.48958 40.6527 8.16667 43.1501 10.2812 45.2646C12.3958 47.3792 14.8932 49.0563 17.7734 50.2959C20.6172 51.5355 23.6615 52.1553 26.9062 52.1553C29.7865 52.1553 32.5117 51.6722 35.082 50.7061C37.6523 49.7399 39.9583 48.4001 42 46.6865L33.9062 37.7725ZM21.875 24.374L23.3516 26.0146L23.1328 25.96C22.7682 25.887 22.4674 25.7048 22.2305 25.4131C21.9935 25.1214 21.875 24.7751 21.875 24.374ZM26.9062 1.7334C30.625 1.7334 34.1068 2.44434 37.3516 3.86621C40.6328 5.28809 43.4857 7.21126 45.9102 9.63574C48.3346 12.0602 50.2578 14.9131 51.6797 18.1943C53.1016 21.4391 53.8125 24.9209 53.8125 28.6396C53.8125 32.3584 53.1016 35.8402 51.6797 39.085C50.2578 42.3662 48.3346 45.2191 45.9102 47.6436C43.4857 50.068 40.6328 51.9912 37.3516 53.4131C34.1068 54.835 30.625 55.5459 26.9062 55.5459C23.1875 55.5459 19.7057 54.835 16.4609 53.4131C13.1797 51.9912 10.3268 50.068 7.90234 47.6436C5.47786 45.2191 3.55469 42.3662 2.13281 39.085C0.710938 35.8402 0 32.3584 0 28.6396C0 24.9209 0.710938 21.4391 2.13281 18.1943C3.55469 14.9131 5.47786 12.0602 7.90234 9.63574C10.3268 7.21126 13.1797 5.28809 16.4609 3.86621C19.7057 2.44434 23.1875 1.7334 26.9062 1.7334Z" fill="#2EBB77"/>
</svg>
