<svg width="56" height="58" viewBox="0 0 56 58" fill="none" xmlns="http://www.w3.org/2000/svg">
<g clip-path="url(#clip0_8360_20780)">
<path d="M52.7188 15.4053V20.6006C53.6667 20.9287 54.4505 21.5212 55.0703 22.3779C55.6901 23.2347 56 24.1917 56 25.249V45.1553C56 46.5042 55.5169 47.6618 54.5508 48.6279C53.5846 49.5941 52.4271 50.0771 51.0781 50.0771H46.1562V54.999C46.1562 55.4365 45.9922 55.8193 45.6641 56.1475C45.3359 56.4756 44.9531 56.6396 44.5156 56.6396H11.4844C11.0469 56.6396 10.6641 56.4756 10.3359 56.1475C10.0078 55.8193 9.84375 55.4365 9.84375 54.999V50.0771H4.92188C3.57292 50.0771 2.41536 49.5941 1.44922 48.6279C0.483073 47.6618 0 46.5042 0 45.1553V25.249C0 24.1917 0.309896 23.2347 0.929688 22.3779C1.54948 21.5212 2.33333 20.9287 3.28125 20.6006V15.4053C3.28125 14.0563 3.76432 12.8988 4.73047 11.9326C5.69661 10.9665 6.85417 10.4834 8.20312 10.4834H9.84375V2.28027C9.84375 1.84277 10.0078 1.45996 10.3359 1.13184C10.6641 0.803711 11.0469 0.639648 11.4844 0.639648H34.6719C34.8906 0.639648 35.1003 0.685223 35.3008 0.776367C35.5013 0.867512 35.6745 0.986004 35.8203 1.13184L45.1719 10.4834H47.7969C49.1458 10.4834 50.3034 10.9665 51.2695 11.9326C52.2357 12.8988 52.7188 14.0563 52.7188 15.4053ZM47.7969 13.7646H46.1562V20.3271H49.4375V15.4053C49.4375 14.9678 49.2734 14.585 48.9453 14.2568C48.6172 13.9287 48.2344 13.7646 47.7969 13.7646ZM40.5781 10.4834L36.3125 6.21777V10.4834H40.5781ZM33.0312 3.9209H13.125V20.3271H42.875V13.7646H34.6719C34.2344 13.7646 33.8516 13.6006 33.5234 13.2725C33.1953 12.9443 33.0312 12.5615 33.0312 12.124V3.9209ZM8.20312 13.7646C7.76562 13.7646 7.38281 13.9287 7.05469 14.2568C6.72656 14.585 6.5625 14.9678 6.5625 15.4053V20.3271H9.84375V13.7646H8.20312ZM13.125 53.3584H42.875V36.9521H13.125V53.3584ZM51.0781 46.7959C51.5156 46.7959 51.8984 46.6318 52.2266 46.3037C52.5547 45.9756 52.7188 45.5928 52.7188 45.1553V25.249C52.7188 24.8115 52.5547 24.4287 52.2266 24.1006C51.8984 23.7725 51.5156 23.6084 51.0781 23.6084H4.92188C4.48438 23.6084 4.10156 23.7725 3.77344 24.1006C3.44531 24.4287 3.28125 24.8115 3.28125 25.249V45.1553C3.28125 45.5928 3.44531 45.9756 3.77344 46.3037C4.10156 46.6318 4.48438 46.7959 4.92188 46.7959H9.84375V36.9521H8.20312C7.76562 36.9521 7.38281 36.7881 7.05469 36.46C6.72656 36.1318 6.5625 35.749 6.5625 35.3115C6.5625 34.874 6.72656 34.4912 7.05469 34.1631C7.38281 33.835 7.76562 33.6709 8.20312 33.6709H47.7969C48.2344 33.6709 48.6172 33.835 48.9453 34.1631C49.2734 34.4912 49.4375 34.874 49.4375 35.3115C49.4375 35.749 49.2734 36.1318 48.9453 36.46C48.6172 36.7881 48.2344 36.9521 47.7969 36.9521H46.1562V46.7959H51.0781ZM18.0469 40.2334C17.6094 40.2334 17.2266 40.3975 16.8984 40.7256C16.5703 41.0537 16.4062 41.4365 16.4062 41.874C16.4062 42.3115 16.5703 42.6943 16.8984 43.0225C17.2266 43.3506 17.6094 43.5146 18.0469 43.5146H37.9531C38.3906 43.5146 38.7734 43.3506 39.1016 43.0225C39.4297 42.6943 39.5938 42.3115 39.5938 41.874C39.5938 41.4365 39.4297 41.0537 39.1016 40.7256C38.7734 40.3975 38.3906 40.2334 37.9531 40.2334H18.0469ZM37.9531 46.7959C38.3906 46.7959 38.7734 46.96 39.1016 47.2881C39.4297 47.6162 39.5938 47.999 39.5938 48.4365C39.5938 48.874 39.4297 49.2568 39.1016 49.585C38.7734 49.9131 38.3906 50.0771 37.9531 50.0771H18.0469C17.6094 50.0771 17.2266 49.9131 16.8984 49.585C16.5703 49.2568 16.4062 48.874 16.4062 48.4365C16.4062 47.999 16.5703 47.6162 16.8984 47.2881C17.2266 46.96 17.6094 46.7959 18.0469 46.7959H37.9531ZM6.5625 28.5303C6.5625 28.9678 6.72656 29.3506 7.05469 29.6787C7.38281 30.0068 7.76562 30.1709 8.20312 30.1709H11.4844C11.9219 30.1709 12.3047 30.0068 12.6328 29.6787C12.9609 29.3506 13.125 28.9678 13.125 28.5303C13.125 28.0928 12.9609 27.71 12.6328 27.3818C12.3047 27.0537 11.9219 26.8896 11.4844 26.8896H8.20312C7.76562 26.8896 7.38281 27.0537 7.05469 27.3818C6.72656 27.71 6.5625 28.0928 6.5625 28.5303ZM52.7188 15.4053V20.6006C53.6667 20.9287 54.4505 21.5212 55.0703 22.3779C55.6901 23.2347 56 24.1917 56 25.249V45.1553C56 46.5042 55.5169 47.6618 54.5508 48.6279C53.5846 49.5941 52.4271 50.0771 51.0781 50.0771H46.1562V54.999C46.1562 55.4365 45.9922 55.8193 45.6641 56.1475C45.3359 56.4756 44.9531 56.6396 44.5156 56.6396H11.4844C11.0469 56.6396 10.6641 56.4756 10.3359 56.1475C10.0078 55.8193 9.84375 55.4365 9.84375 54.999V50.0771H4.92188C3.57292 50.0771 2.41536 49.5941 1.44922 48.6279C0.483073 47.6618 0 46.5042 0 45.1553V25.249C0 24.1917 0.309896 23.2347 0.929688 22.3779C1.54948 21.5212 2.33333 20.9287 3.28125 20.6006V15.4053C3.28125 14.0563 3.76432 12.8988 4.73047 11.9326C5.69661 10.9665 6.85417 10.4834 8.20312 10.4834H9.84375V2.28027C9.84375 1.84277 10.0078 1.45996 10.3359 1.13184C10.6641 0.803711 11.0469 0.639648 11.4844 0.639648H34.6719C34.8906 0.639648 35.1003 0.685223 35.3008 0.776367C35.5013 0.867512 35.6745 0.986004 35.8203 1.13184L45.1719 10.4834H47.7969C49.1458 10.4834 50.3034 10.9665 51.2695 11.9326C52.2357 12.8988 52.7188 14.0563 52.7188 15.4053ZM47.7969 13.7646H46.1562V20.3271H49.4375V15.4053C49.4375 14.9678 49.2734 14.585 48.9453 14.2568C48.6172 13.9287 48.2344 13.7646 47.7969 13.7646ZM40.5781 10.4834L36.3125 6.21777V10.4834H40.5781ZM33.0312 3.9209H13.125V20.3271H42.875V13.7646H34.6719C34.2344 13.7646 33.8516 13.6006 33.5234 13.2725C33.1953 12.9443 33.0312 12.5615 33.0312 12.124V3.9209ZM8.20312 13.7646C7.76562 13.7646 7.38281 13.9287 7.05469 14.2568C6.72656 14.585 6.5625 14.9678 6.5625 15.4053V20.3271H9.84375V13.7646H8.20312ZM13.125 53.3584H42.875V36.9521H13.125V53.3584ZM51.0781 46.7959C51.5156 46.7959 51.8984 46.6318 52.2266 46.3037C52.5547 45.9756 52.7188 45.5928 52.7188 45.1553V25.249C52.7188 24.8115 52.5547 24.4287 52.2266 24.1006C51.8984 23.7725 51.5156 23.6084 51.0781 23.6084H4.92188C4.48438 23.6084 4.10156 23.7725 3.77344 24.1006C3.44531 24.4287 3.28125 24.8115 3.28125 25.249V45.1553C3.28125 45.5928 3.44531 45.9756 3.77344 46.3037C4.10156 46.6318 4.48438 46.7959 4.92188 46.7959H9.84375V36.9521H8.20312C7.76562 36.9521 7.38281 36.7881 7.05469 36.46C6.72656 36.1318 6.5625 35.749 6.5625 35.3115C6.5625 34.874 6.72656 34.4912 7.05469 34.1631C7.38281 33.835 7.76562 33.6709 8.20312 33.6709H47.7969C48.2344 33.6709 48.6172 33.835 48.9453 34.1631C49.2734 34.4912 49.4375 34.874 49.4375 35.3115C49.4375 35.749 49.2734 36.1318 48.9453 36.46C48.6172 36.7881 48.2344 36.9521 47.7969 36.9521H46.1562V46.7959H51.0781ZM18.0469 40.2334C17.6094 40.2334 17.2266 40.3975 16.8984 40.7256C16.5703 41.0537 16.4062 41.4365 16.4062 41.874C16.4062 42.3115 16.5703 42.6943 16.8984 43.0225C17.2266 43.3506 17.6094 43.5146 18.0469 43.5146H37.9531C38.3906 43.5146 38.7734 43.3506 39.1016 43.0225C39.4297 42.6943 39.5938 42.3115 39.5938 41.874C39.5938 41.4365 39.4297 41.0537 39.1016 40.7256C38.7734 40.3975 38.3906 40.2334 37.9531 40.2334H18.0469ZM37.9531 46.7959C38.3906 46.7959 38.7734 46.96 39.1016 47.2881C39.4297 47.6162 39.5938 47.999 39.5938 48.4365C39.5938 48.874 39.4297 49.2568 39.1016 49.585C38.7734 49.9131 38.3906 50.0771 37.9531 50.0771H18.0469C17.6094 50.0771 17.2266 49.9131 16.8984 49.585C16.5703 49.2568 16.4062 48.874 16.4062 48.4365C16.4062 47.999 16.5703 47.6162 16.8984 47.2881C17.2266 46.96 17.6094 46.7959 18.0469 46.7959H37.9531ZM6.5625 28.5303C6.5625 28.9678 6.72656 29.3506 7.05469 29.6787C7.38281 30.0068 7.76562 30.1709 8.20312 30.1709H11.4844C11.9219 30.1709 12.3047 30.0068 12.6328 29.6787C12.9609 29.3506 13.125 28.9678 13.125 28.5303C13.125 28.0928 12.9609 27.71 12.6328 27.3818C12.3047 27.0537 11.9219 26.8896 11.4844 26.8896H8.20312C7.76562 26.8896 7.38281 27.0537 7.05469 27.3818C6.72656 27.71 6.5625 28.0928 6.5625 28.5303Z" fill="#2EBB77"/>
</g>
<defs>
<clipPath id="clip0_8360_20780">
<rect width="56" height="57" fill="white" transform="matrix(1 0 0 -1 0 57.1396)"/>
</clipPath>
</defs>
</svg>
