<svg width="56" height="58" viewBox="0 0 56 58" fill="none" xmlns="http://www.w3.org/2000/svg">
<path d="M54.9609 9.55371L42.7109 4.30371C42.4922 4.19434 42.2552 4.13965 42 4.13965C41.7448 4.13965 41.5078 4.19434 41.2891 4.30371L29.0391 9.55371C28.7474 9.66309 28.5013 9.86361 28.3008 10.1553C28.1003 10.4469 28 10.7751 28 11.1396V18.1396C28 20.5459 28.237 22.7152 28.7109 24.6475C29.1849 26.6162 29.9414 28.4209 30.9805 30.0615C32.0195 31.7021 33.3776 33.2516 35.0547 34.71C36.6953 36.1318 38.7188 37.5355 41.125 38.9209C41.2708 38.9938 41.4167 39.0485 41.5625 39.085C41.7083 39.1214 41.8542 39.1396 42 39.1396C42.1458 39.1396 42.2917 39.1214 42.4375 39.085C42.5833 39.0485 42.7292 38.9938 42.875 38.9209C45.2812 37.5355 47.3047 36.1318 48.9453 34.71C50.6224 33.2881 51.9805 31.7477 53.0195 30.0889C54.0586 28.43 54.8151 26.6344 55.2891 24.7021C55.763 22.7334 56 20.5459 56 18.1396V11.1396C56 10.7751 55.8997 10.4469 55.6992 10.1553C55.4987 9.86361 55.2526 9.66309 54.9609 9.55371ZM52.5 18.1396C52.5 20.1449 52.3177 21.9495 51.9531 23.5537C51.5885 25.1943 50.9961 26.6891 50.1758 28.0381C49.3555 29.387 48.2708 30.6449 46.9219 31.8115C45.6094 33.0146 43.9688 34.1995 42 35.3662C40.0312 34.1995 38.3906 33.0146 37.0781 31.8115C35.7292 30.6449 34.6445 29.3779 33.8242 28.0107C33.0039 26.6436 32.4115 25.1579 32.0469 23.5537C31.6823 21.9495 31.5 20.1449 31.5 18.1396V12.2881L42 7.80371L52.5 12.2881V18.1396ZM52.5 37.3896V49.6396H3.5V28.6396H22.75C23.224 28.6396 23.6341 28.4665 23.9805 28.1201C24.3268 27.7738 24.5 27.3636 24.5 26.8896C24.5 26.4157 24.3268 26.0055 23.9805 25.6592C23.6341 25.3128 23.224 25.1396 22.75 25.1396H3.5V18.1396H22.75C23.224 18.1396 23.6341 17.9665 23.9805 17.6201C24.3268 17.2738 24.5 16.8636 24.5 16.3896C24.5 15.9157 24.3268 15.5055 23.9805 15.1592C23.6341 14.8128 23.224 14.6396 22.75 14.6396H3.5C2.55208 14.6396 1.73177 14.9769 1.03906 15.6514C0.346354 16.3258 0 17.1553 0 18.1396V49.6396C0 50.5876 0.346354 51.4079 1.03906 52.1006C1.73177 52.7933 2.55208 53.1396 3.5 53.1396H52.5C53.4479 53.1396 54.2682 52.7933 54.9609 52.1006C55.6536 51.4079 56 50.5876 56 49.6396V37.3896C56 36.9157 55.8268 36.5055 55.4805 36.1592C55.1341 35.8128 54.724 35.6396 54.25 35.6396C53.776 35.6396 53.3659 35.8128 53.0195 36.1592C52.6732 36.5055 52.5 36.9157 52.5 37.3896ZM8.75 35.6396C8.27604 35.6396 7.86589 35.8128 7.51953 36.1592C7.17318 36.5055 7 36.9157 7 37.3896C7 37.8636 7.17318 38.2738 7.51953 38.6201C7.86589 38.9665 8.27604 39.1396 8.75 39.1396H15.75C16.224 39.1396 16.6341 38.9665 16.9805 38.6201C17.3268 38.2738 17.5 37.8636 17.5 37.3896C17.5 36.9157 17.3268 36.5055 16.9805 36.1592C16.6341 35.8128 16.224 35.6396 15.75 35.6396H8.75ZM45.8828 15.2959L40.3594 22.1865L38.2266 18.9053C37.9349 18.5042 37.5521 18.2581 37.0781 18.167C36.6042 18.0758 36.1667 18.1579 35.7656 18.4131C35.3646 18.7048 35.1185 19.0876 35.0273 19.5615C34.9362 20.0355 35.0182 20.473 35.2734 20.874L38.7734 26.124C38.9557 26.3428 39.1654 26.5251 39.4023 26.6709C39.6393 26.8167 39.9036 26.8896 40.1953 26.8896H40.25C40.5052 26.8896 40.7513 26.835 40.9883 26.7256C41.2253 26.6162 41.4349 26.4521 41.6172 26.2334L48.6172 17.4834C48.9089 17.1188 49.0273 16.6904 48.9727 16.1982C48.918 15.7061 48.7083 15.3141 48.3438 15.0225C47.9792 14.7308 47.5508 14.6123 47.0586 14.667C46.5664 14.7217 46.1745 14.9313 45.8828 15.2959ZM54.9609 9.55371L42.7109 4.30371C42.4922 4.19434 42.2552 4.13965 42 4.13965C41.7448 4.13965 41.5078 4.19434 41.2891 4.30371L29.0391 9.55371C28.7474 9.66309 28.5013 9.86361 28.3008 10.1553C28.1003 10.4469 28 10.7751 28 11.1396V18.1396C28 20.5459 28.237 22.7152 28.7109 24.6475C29.1849 26.6162 29.9414 28.4209 30.9805 30.0615C32.0195 31.7021 33.3776 33.2516 35.0547 34.71C36.6953 36.1318 38.7188 37.5355 41.125 38.9209C41.2708 38.9938 41.4167 39.0485 41.5625 39.085C41.7083 39.1214 41.8542 39.1396 42 39.1396C42.1458 39.1396 42.2917 39.1214 42.4375 39.085C42.5833 39.0485 42.7292 38.9938 42.875 38.9209C45.2812 37.5355 47.3047 36.1318 48.9453 34.71C50.6224 33.2881 51.9805 31.7477 53.0195 30.0889C54.0586 28.43 54.8151 26.6344 55.2891 24.7021C55.763 22.7334 56 20.5459 56 18.1396V11.1396C56 10.7751 55.8997 10.4469 55.6992 10.1553C55.4987 9.86361 55.2526 9.66309 54.9609 9.55371ZM52.5 18.1396C52.5 20.1449 52.3177 21.9495 51.9531 23.5537C51.5885 25.1943 50.9961 26.6891 50.1758 28.0381C49.3555 29.387 48.2708 30.6449 46.9219 31.8115C45.6094 33.0146 43.9688 34.1995 42 35.3662C40.0312 34.1995 38.3906 33.0146 37.0781 31.8115C35.7292 30.6449 34.6445 29.3779 33.8242 28.0107C33.0039 26.6436 32.4115 25.1579 32.0469 23.5537C31.6823 21.9495 31.5 20.1449 31.5 18.1396V12.2881L42 7.80371L52.5 12.2881V18.1396ZM52.5 37.3896V49.6396H3.5V28.6396H22.75C23.224 28.6396 23.6341 28.4665 23.9805 28.1201C24.3268 27.7738 24.5 27.3636 24.5 26.8896C24.5 26.4157 24.3268 26.0055 23.9805 25.6592C23.6341 25.3128 23.224 25.1396 22.75 25.1396H3.5V18.1396H22.75C23.224 18.1396 23.6341 17.9665 23.9805 17.6201C24.3268 17.2738 24.5 16.8636 24.5 16.3896C24.5 15.9157 24.3268 15.5055 23.9805 15.1592C23.6341 14.8128 23.224 14.6396 22.75 14.6396H3.5C2.55208 14.6396 1.73177 14.9769 1.03906 15.6514C0.346354 16.3258 0 17.1553 0 18.1396V49.6396C0 50.5876 0.346354 51.4079 1.03906 52.1006C1.73177 52.7933 2.55208 53.1396 3.5 53.1396H52.5C53.4479 53.1396 54.2682 52.7933 54.9609 52.1006C55.6536 51.4079 56 50.5876 56 49.6396V37.3896C56 36.9157 55.8268 36.5055 55.4805 36.1592C55.1341 35.8128 54.724 35.6396 54.25 35.6396C53.776 35.6396 53.3659 35.8128 53.0195 36.1592C52.6732 36.5055 52.5 36.9157 52.5 37.3896ZM8.75 35.6396C8.27604 35.6396 7.86589 35.8128 7.51953 36.1592C7.17318 36.5055 7 36.9157 7 37.3896C7 37.8636 7.17318 38.2738 7.51953 38.6201C7.86589 38.9665 8.27604 39.1396 8.75 39.1396H15.75C16.224 39.1396 16.6341 38.9665 16.9805 38.6201C17.3268 38.2738 17.5 37.8636 17.5 37.3896C17.5 36.9157 17.3268 36.5055 16.9805 36.1592C16.6341 35.8128 16.224 35.6396 15.75 35.6396H8.75ZM45.8828 15.2959L40.3594 22.1865L38.2266 18.9053C37.9349 18.5042 37.5521 18.2581 37.0781 18.167C36.6042 18.0758 36.1667 18.1579 35.7656 18.4131C35.3646 18.7048 35.1185 19.0876 35.0273 19.5615C34.9362 20.0355 35.0182 20.473 35.2734 20.874L38.7734 26.124C38.9557 26.3428 39.1654 26.5251 39.4023 26.6709C39.6393 26.8167 39.9036 26.8896 40.1953 26.8896H40.25C40.5052 26.8896 40.7513 26.835 40.9883 26.7256C41.2253 26.6162 41.4349 26.4521 41.6172 26.2334L48.6172 17.4834C48.9089 17.1188 49.0273 16.6904 48.9727 16.1982C48.918 15.7061 48.7083 15.3141 48.3438 15.0225C47.9792 14.7308 47.5508 14.6123 47.0586 14.667C46.5664 14.7217 46.1745 14.9313 45.8828 15.2959Z" fill="#2EBB77"/>
</svg>
