<svg width="56" height="58" viewBox="0 0 56 58" fill="none" xmlns="http://www.w3.org/2000/svg">
<path d="M43.75 11.1396H22.4766C22.112 9.64486 21.3099 8.39616 20.0703 7.39355C18.8307 6.39095 17.3906 5.88965 15.75 5.88965C14.1094 5.88965 12.6693 6.39095 11.4297 7.39355C10.1901 8.39616 9.38802 9.64486 9.02344 11.1396H1.75C1.27604 11.1396 0.865885 11.3128 0.519531 11.6592C0.173177 12.0055 0 12.4157 0 12.8896C0 13.3636 0.173177 13.7738 0.519531 14.1201C0.865885 14.4665 1.27604 14.6396 1.75 14.6396H9.02344C9.38802 16.1344 10.1901 17.3831 11.4297 18.3857C12.6693 19.3883 14.1094 19.8896 15.75 19.8896C17.3906 19.8896 18.8307 19.3883 20.0703 18.3857C21.3099 17.3831 22.112 16.1344 22.4766 14.6396H43.75C44.224 14.6396 44.6341 14.4665 44.9805 14.1201C45.3268 13.7738 45.5 13.3636 45.5 12.8896C45.5 12.4157 45.3268 12.0055 44.9805 11.6592C44.6341 11.3128 44.224 11.1396 43.75 11.1396ZM15.75 16.3896C14.8021 16.3896 13.9818 16.0433 13.2891 15.3506C12.5964 14.6579 12.25 13.8376 12.25 12.8896C12.25 11.9417 12.5964 11.1214 13.2891 10.4287C13.9818 9.736 14.8021 9.38965 15.75 9.38965C16.6979 9.38965 17.5182 9.736 18.2109 10.4287C18.9036 11.1214 19.25 11.9417 19.25 12.8896C19.25 13.8376 18.9036 14.6579 18.2109 15.3506C17.5182 16.0433 16.6979 16.3896 15.75 16.3896ZM43.75 26.8896H36.4766C36.112 25.3949 35.3099 24.1462 34.0703 23.1436C32.8307 22.141 31.3906 21.6396 29.75 21.6396C28.1094 21.6396 26.6693 22.141 25.4297 23.1436C24.1901 24.1462 23.388 25.3949 23.0234 26.8896H1.75C1.27604 26.8896 0.865885 27.0628 0.519531 27.4092C0.173177 27.7555 0 28.1657 0 28.6396C0 29.1136 0.173177 29.5238 0.519531 29.8701C0.865885 30.2165 1.27604 30.3896 1.75 30.3896H23.0234C23.388 31.8844 24.1901 33.1331 25.4297 34.1357C26.6693 35.1383 28.1094 35.6396 29.75 35.6396C31.3906 35.6396 32.8307 35.1383 34.0703 34.1357C35.3099 33.1331 36.112 31.8844 36.4766 30.3896H43.75C44.224 30.3896 44.6341 30.2165 44.9805 29.8701C45.3268 29.5238 45.5 29.1136 45.5 28.6396C45.5 28.1657 45.3268 27.7555 44.9805 27.4092C44.6341 27.0628 44.224 26.8896 43.75 26.8896ZM29.75 32.1396C28.8021 32.1396 27.9818 31.7933 27.2891 31.1006C26.5964 30.4079 26.25 29.5876 26.25 28.6396C26.25 27.6917 26.5964 26.8714 27.2891 26.1787C27.9818 25.486 28.8021 25.1396 29.75 25.1396C30.6979 25.1396 31.5182 25.486 32.2109 26.1787C32.9036 26.8714 33.25 27.6917 33.25 28.6396C33.25 29.5876 32.9036 30.4079 32.2109 31.1006C31.5182 31.7933 30.6979 32.1396 29.75 32.1396ZM43.75 42.6396H22.4766C22.112 41.1449 21.3099 39.8962 20.0703 38.8936C18.8307 37.891 17.3906 37.3896 15.75 37.3896C14.1094 37.3896 12.6693 37.891 11.4297 38.8936C10.1901 39.8962 9.38802 41.1449 9.02344 42.6396H1.75C1.27604 42.6396 0.865885 42.8128 0.519531 43.1592C0.173177 43.5055 0 43.9157 0 44.3896C0 44.8636 0.173177 45.2738 0.519531 45.6201C0.865885 45.9665 1.27604 46.1396 1.75 46.1396H9.02344C9.38802 47.6344 10.1901 48.8831 11.4297 49.8857C12.6693 50.8883 14.1094 51.3896 15.75 51.3896C17.3906 51.3896 18.8307 50.8883 20.0703 49.8857C21.3099 48.8831 22.112 47.6344 22.4766 46.1396H43.75C44.224 46.1396 44.6341 45.9665 44.9805 45.6201C45.3268 45.2738 45.5 44.8636 45.5 44.3896C45.5 43.9157 45.3268 43.5055 44.9805 43.1592C44.6341 42.8128 44.224 42.6396 43.75 42.6396ZM15.75 47.8896C14.8021 47.8896 13.9818 47.5433 13.2891 46.8506C12.5964 46.1579 12.25 45.3376 12.25 44.3896C12.25 43.4417 12.5964 42.6214 13.2891 41.9287C13.9818 41.236 14.8021 40.8896 15.75 40.8896C16.6979 40.8896 17.5182 41.236 18.2109 41.9287C18.9036 42.6214 19.25 43.4417 19.25 44.3896C19.25 45.3376 18.9036 46.1579 18.2109 46.8506C17.5182 47.5433 16.6979 47.8896 15.75 47.8896ZM43.75 11.1396H22.4766C22.112 9.64486 21.3099 8.39616 20.0703 7.39355C18.8307 6.39095 17.3906 5.88965 15.75 5.88965C14.1094 5.88965 12.6693 6.39095 11.4297 7.39355C10.1901 8.39616 9.38802 9.64486 9.02344 11.1396H1.75C1.27604 11.1396 0.865885 11.3128 0.519531 11.6592C0.173177 12.0055 0 12.4157 0 12.8896C0 13.3636 0.173177 13.7738 0.519531 14.1201C0.865885 14.4665 1.27604 14.6396 1.75 14.6396H9.02344C9.38802 16.1344 10.1901 17.3831 11.4297 18.3857C12.6693 19.3883 14.1094 19.8896 15.75 19.8896C17.3906 19.8896 18.8307 19.3883 20.0703 18.3857C21.3099 17.3831 22.112 16.1344 22.4766 14.6396H43.75C44.224 14.6396 44.6341 14.4665 44.9805 14.1201C45.3268 13.7738 45.5 13.3636 45.5 12.8896C45.5 12.4157 45.3268 12.0055 44.9805 11.6592C44.6341 11.3128 44.224 11.1396 43.75 11.1396ZM15.75 16.3896C14.8021 16.3896 13.9818 16.0433 13.2891 15.3506C12.5964 14.6579 12.25 13.8376 12.25 12.8896C12.25 11.9417 12.5964 11.1214 13.2891 10.4287C13.9818 9.736 14.8021 9.38965 15.75 9.38965C16.6979 9.38965 17.5182 9.736 18.2109 10.4287C18.9036 11.1214 19.25 11.9417 19.25 12.8896C19.25 13.8376 18.9036 14.6579 18.2109 15.3506C17.5182 16.0433 16.6979 16.3896 15.75 16.3896ZM43.75 26.8896H36.4766C36.112 25.3949 35.3099 24.1462 34.0703 23.1436C32.8307 22.141 31.3906 21.6396 29.75 21.6396C28.1094 21.6396 26.6693 22.141 25.4297 23.1436C24.1901 24.1462 23.388 25.3949 23.0234 26.8896H1.75C1.27604 26.8896 0.865885 27.0628 0.519531 27.4092C0.173177 27.7555 0 28.1657 0 28.6396C0 29.1136 0.173177 29.5238 0.519531 29.8701C0.865885 30.2165 1.27604 30.3896 1.75 30.3896H23.0234C23.388 31.8844 24.1901 33.1331 25.4297 34.1357C26.6693 35.1383 28.1094 35.6396 29.75 35.6396C31.3906 35.6396 32.8307 35.1383 34.0703 34.1357C35.3099 33.1331 36.112 31.8844 36.4766 30.3896H43.75C44.224 30.3896 44.6341 30.2165 44.9805 29.8701C45.3268 29.5238 45.5 29.1136 45.5 28.6396C45.5 28.1657 45.3268 27.7555 44.9805 27.4092C44.6341 27.0628 44.224 26.8896 43.75 26.8896ZM29.75 32.1396C28.8021 32.1396 27.9818 31.7933 27.2891 31.1006C26.5964 30.4079 26.25 29.5876 26.25 28.6396C26.25 27.6917 26.5964 26.8714 27.2891 26.1787C27.9818 25.486 28.8021 25.1396 29.75 25.1396C30.6979 25.1396 31.5182 25.486 32.2109 26.1787C32.9036 26.8714 33.25 27.6917 33.25 28.6396C33.25 29.5876 32.9036 30.4079 32.2109 31.1006C31.5182 31.7933 30.6979 32.1396 29.75 32.1396ZM43.75 42.6396H22.4766C22.112 41.1449 21.3099 39.8962 20.0703 38.8936C18.8307 37.891 17.3906 37.3896 15.75 37.3896C14.1094 37.3896 12.6693 37.891 11.4297 38.8936C10.1901 39.8962 9.38802 41.1449 9.02344 42.6396H1.75C1.27604 42.6396 0.865885 42.8128 0.519531 43.1592C0.173177 43.5055 0 43.9157 0 44.3896C0 44.8636 0.173177 45.2738 0.519531 45.6201C0.865885 45.9665 1.27604 46.1396 1.75 46.1396H9.02344C9.38802 47.6344 10.1901 48.8831 11.4297 49.8857C12.6693 50.8883 14.1094 51.3896 15.75 51.3896C17.3906 51.3896 18.8307 50.8883 20.0703 49.8857C21.3099 48.8831 22.112 47.6344 22.4766 46.1396H43.75C44.224 46.1396 44.6341 45.9665 44.9805 45.6201C45.3268 45.2738 45.5 44.8636 45.5 44.3896C45.5 43.9157 45.3268 43.5055 44.9805 43.1592C44.6341 42.8128 44.224 42.6396 43.75 42.6396ZM15.75 47.8896C14.8021 47.8896 13.9818 47.5433 13.2891 46.8506C12.5964 46.1579 12.25 45.3376 12.25 44.3896C12.25 43.4417 12.5964 42.6214 13.2891 41.9287C13.9818 41.236 14.8021 40.8896 15.75 40.8896C16.6979 40.8896 17.5182 41.236 18.2109 41.9287C18.9036 42.6214 19.25 43.4417 19.25 44.3896C19.25 45.3376 18.9036 46.1579 18.2109 46.8506C17.5182 47.5433 16.6979 47.8896 15.75 47.8896Z" fill="#2EBB77"/>
</svg>
