<svg width="56" height="58" viewBox="0 0 56 58" fill="none" xmlns="http://www.w3.org/2000/svg">
<path d="M55.6172 28.4756L52.3359 24.2646L47.0312 13.71C46.8854 13.4183 46.6758 13.1904 46.4023 13.0264C46.1289 12.8623 45.8099 12.7803 45.4453 12.7803H37.9531V10.9756C37.9531 10.5016 37.7799 10.0915 37.4336 9.74512C37.0872 9.39876 36.6771 9.22559 36.2031 9.22559H6.78125C6.27083 9.22559 5.84245 9.39876 5.49609 9.74512C5.14974 10.0915 4.97656 10.5016 4.97656 10.9756C4.97656 11.486 5.14974 11.9144 5.49609 12.2607C5.84245 12.6071 6.27083 12.7803 6.78125 12.7803H34.3984V25.085C34.3984 25.5954 34.5716 26.0238 34.918 26.3701C35.2643 26.7165 35.6927 26.8896 36.2031 26.8896H49.875L52.4453 30.1709V39.3037H49.1641C48.763 37.7725 47.9336 36.4964 46.6758 35.4756C45.418 34.4548 43.9505 33.9443 42.2734 33.9443C40.6328 33.9443 39.1836 34.4548 37.9258 35.4756C36.668 36.4964 35.8385 37.7725 35.4375 39.3037H25.0469C24.6458 37.7725 23.8164 36.4964 22.5586 35.4756C21.3008 34.4548 19.8333 33.9443 18.1562 33.9443C16.5156 33.9443 15.0664 34.4548 13.8086 35.4756C12.5508 36.4964 11.7214 37.7725 11.3203 39.3037H6.78125C6.27083 39.3037 5.84245 39.4769 5.49609 39.8232C5.14974 40.1696 4.97656 40.5798 4.97656 41.0537C4.97656 41.5277 5.14974 41.9378 5.49609 42.2842C5.84245 42.6305 6.27083 42.8037 6.78125 42.8037H11.375C11.776 44.335 12.6055 45.5928 13.8633 46.5771C15.1211 47.5615 16.5521 48.0537 18.1562 48.0537C19.7969 48.0537 21.2461 47.5615 22.5039 46.5771C23.7617 45.5928 24.5911 44.335 24.9922 42.8037H35.4922C35.8932 44.335 36.7227 45.5928 37.9805 46.5771C39.2383 47.5615 40.6693 48.0537 42.2734 48.0537C43.9141 48.0537 45.3633 47.5615 46.6211 46.5771C47.8789 45.5928 48.7083 44.335 49.1094 42.8037H54.25C54.724 42.8037 55.1341 42.6305 55.4805 42.2842C55.8268 41.9378 56 41.5277 56 41.0537V29.5693C56 29.387 55.9727 29.2048 55.918 29.0225C55.8633 28.8402 55.763 28.6579 55.6172 28.4756ZM44.4062 16.2803L47.9062 23.335H37.9531V16.2803H44.4062ZM18.1562 44.499C17.2083 44.499 16.388 44.1618 15.6953 43.4873C15.0026 42.8128 14.6562 41.9834 14.6562 40.999C14.6562 40.0146 15.0026 39.1761 15.6953 38.4834C16.388 37.7907 17.2083 37.4443 18.1562 37.4443C19.1406 37.4443 19.9792 37.7907 20.6719 38.4834C21.3646 39.1761 21.7109 40.0146 21.7109 40.999C21.7109 41.9834 21.3646 42.8128 20.6719 43.4873C19.9792 44.1618 19.1406 44.499 18.1562 44.499ZM42.2734 44.499C41.3255 44.499 40.5052 44.1618 39.8125 43.4873C39.1198 42.8128 38.7734 41.9834 38.7734 40.999C38.7734 40.0146 39.1198 39.1761 39.8125 38.4834C40.5052 37.7907 41.3255 37.4443 42.2734 37.4443C43.2578 37.4443 44.0964 37.7907 44.7891 38.4834C45.4818 39.1761 45.8281 40.0146 45.8281 40.999C45.8281 41.9834 45.4818 42.8128 44.7891 43.4873C44.0964 44.1618 43.2578 44.499 42.2734 44.499ZM4.64844 30.335C4.17448 30.335 3.76432 30.5081 3.41797 30.8545C3.07161 31.2008 2.89844 31.611 2.89844 32.085C2.89844 32.5954 3.07161 33.0238 3.41797 33.3701C3.76432 33.7165 4.17448 33.8896 4.64844 33.8896H12.7422C13.2526 33.8896 13.681 33.7165 14.0273 33.3701C14.3737 33.0238 14.5469 32.5954 14.5469 32.085C14.5469 31.611 14.3737 31.2008 14.0273 30.8545C13.681 30.5081 13.2526 30.335 12.7422 30.335H4.64844ZM16.8438 23.3896C17.3177 23.3896 17.7279 23.5628 18.0742 23.9092C18.4206 24.2555 18.5938 24.6839 18.5938 25.1943C18.5938 25.6683 18.4206 26.0785 18.0742 26.4248C17.7279 26.7712 17.3177 26.9443 16.8438 26.9443H1.75C1.27604 26.9443 0.865885 26.7712 0.519531 26.4248C0.173177 26.0785 0 25.6683 0 25.1943C0 24.6839 0.173177 24.2555 0.519531 23.9092C0.865885 23.5628 1.27604 23.3896 1.75 23.3896H16.8438ZM4.64844 16.4443C4.17448 16.4443 3.76432 16.6175 3.41797 16.9639C3.07161 17.3102 2.89844 17.7386 2.89844 18.249C2.89844 18.723 3.07161 19.1331 3.41797 19.4795C3.76432 19.8258 4.17448 19.999 4.64844 19.999H19.6875C20.1979 19.999 20.6263 19.8258 20.9727 19.4795C21.319 19.1331 21.4922 18.723 21.4922 18.249C21.4922 17.7386 21.319 17.3102 20.9727 16.9639C20.6263 16.6175 20.1979 16.4443 19.6875 16.4443H4.64844ZM55.6172 28.4756L52.3359 24.2646L47.0312 13.71C46.8854 13.4183 46.6758 13.1904 46.4023 13.0264C46.1289 12.8623 45.8099 12.7803 45.4453 12.7803H37.9531V10.9756C37.9531 10.5016 37.7799 10.0915 37.4336 9.74512C37.0872 9.39876 36.6771 9.22559 36.2031 9.22559H6.78125C6.27083 9.22559 5.84245 9.39876 5.49609 9.74512C5.14974 10.0915 4.97656 10.5016 4.97656 10.9756C4.97656 11.486 5.14974 11.9144 5.49609 12.2607C5.84245 12.6071 6.27083 12.7803 6.78125 12.7803H34.3984V25.085C34.3984 25.5954 34.5716 26.0238 34.918 26.3701C35.2643 26.7165 35.6927 26.8896 36.2031 26.8896H49.875L52.4453 30.1709V39.3037H49.1641C48.763 37.7725 47.9336 36.4964 46.6758 35.4756C45.418 34.4548 43.9505 33.9443 42.2734 33.9443C40.6328 33.9443 39.1836 34.4548 37.9258 35.4756C36.668 36.4964 35.8385 37.7725 35.4375 39.3037H25.0469C24.6458 37.7725 23.8164 36.4964 22.5586 35.4756C21.3008 34.4548 19.8333 33.9443 18.1562 33.9443C16.5156 33.9443 15.0664 34.4548 13.8086 35.4756C12.5508 36.4964 11.7214 37.7725 11.3203 39.3037H6.78125C6.27083 39.3037 5.84245 39.4769 5.49609 39.8232C5.14974 40.1696 4.97656 40.5798 4.97656 41.0537C4.97656 41.5277 5.14974 41.9378 5.49609 42.2842C5.84245 42.6305 6.27083 42.8037 6.78125 42.8037H11.375C11.776 44.335 12.6055 45.5928 13.8633 46.5771C15.1211 47.5615 16.5521 48.0537 18.1562 48.0537C19.7969 48.0537 21.2461 47.5615 22.5039 46.5771C23.7617 45.5928 24.5911 44.335 24.9922 42.8037H35.4922C35.8932 44.335 36.7227 45.5928 37.9805 46.5771C39.2383 47.5615 40.6693 48.0537 42.2734 48.0537C43.9141 48.0537 45.3633 47.5615 46.6211 46.5771C47.8789 45.5928 48.7083 44.335 49.1094 42.8037H54.25C54.724 42.8037 55.1341 42.6305 55.4805 42.2842C55.8268 41.9378 56 41.5277 56 41.0537V29.5693C56 29.387 55.9727 29.2048 55.918 29.0225C55.8633 28.8402 55.763 28.6579 55.6172 28.4756ZM44.4062 16.2803L47.9062 23.335H37.9531V16.2803H44.4062ZM18.1562 44.499C17.2083 44.499 16.388 44.1618 15.6953 43.4873C15.0026 42.8128 14.6562 41.9834 14.6562 40.999C14.6562 40.0146 15.0026 39.1761 15.6953 38.4834C16.388 37.7907 17.2083 37.4443 18.1562 37.4443C19.1406 37.4443 19.9792 37.7907 20.6719 38.4834C21.3646 39.1761 21.7109 40.0146 21.7109 40.999C21.7109 41.9834 21.3646 42.8128 20.6719 43.4873C19.9792 44.1618 19.1406 44.499 18.1562 44.499ZM42.2734 44.499C41.3255 44.499 40.5052 44.1618 39.8125 43.4873C39.1198 42.8128 38.7734 41.9834 38.7734 40.999C38.7734 40.0146 39.1198 39.1761 39.8125 38.4834C40.5052 37.7907 41.3255 37.4443 42.2734 37.4443C43.2578 37.4443 44.0964 37.7907 44.7891 38.4834C45.4818 39.1761 45.8281 40.0146 45.8281 40.999C45.8281 41.9834 45.4818 42.8128 44.7891 43.4873C44.0964 44.1618 43.2578 44.499 42.2734 44.499ZM4.64844 30.335C4.17448 30.335 3.76432 30.5081 3.41797 30.8545C3.07161 31.2008 2.89844 31.611 2.89844 32.085C2.89844 32.5954 3.07161 33.0238 3.41797 33.3701C3.76432 33.7165 4.17448 33.8896 4.64844 33.8896H12.7422C13.2526 33.8896 13.681 33.7165 14.0273 33.3701C14.3737 33.0238 14.5469 32.5954 14.5469 32.085C14.5469 31.611 14.3737 31.2008 14.0273 30.8545C13.681 30.5081 13.2526 30.335 12.7422 30.335H4.64844ZM16.8438 23.3896C17.3177 23.3896 17.7279 23.5628 18.0742 23.9092C18.4206 24.2555 18.5938 24.6839 18.5938 25.1943C18.5938 25.6683 18.4206 26.0785 18.0742 26.4248C17.7279 26.7712 17.3177 26.9443 16.8438 26.9443H1.75C1.27604 26.9443 0.865885 26.7712 0.519531 26.4248C0.173177 26.0785 0 25.6683 0 25.1943C0 24.6839 0.173177 24.2555 0.519531 23.9092C0.865885 23.5628 1.27604 23.3896 1.75 23.3896H16.8438ZM4.64844 16.4443C4.17448 16.4443 3.76432 16.6175 3.41797 16.9639C3.07161 17.3102 2.89844 17.7386 2.89844 18.249C2.89844 18.723 3.07161 19.1331 3.41797 19.4795C3.76432 19.8258 4.17448 19.999 4.64844 19.999H19.6875C20.1979 19.999 20.6263 19.8258 20.9727 19.4795C21.319 19.1331 21.4922 18.723 21.4922 18.249C21.4922 17.7386 21.319 17.3102 20.9727 16.9639C20.6263 16.6175 20.1979 16.4443 19.6875 16.4443H4.64844Z" fill="#2EBB77"/>
</svg>
