<svg width="56" height="58" viewBox="0 0 56 58" fill="none" xmlns="http://www.w3.org/2000/svg">
<path d="M50.4219 30.9365V20.2178C50.4219 20.0719 50.4036 19.9261 50.3672 19.7803C50.3307 19.6344 50.276 19.5068 50.2031 19.3975L41.0703 4.19434C40.6328 3.46517 40.0221 2.87272 39.2383 2.41699C38.4544 1.96126 37.625 1.7334 36.75 1.7334H13.6719C12.7969 1.7334 11.9766 1.96126 11.2109 2.41699C10.4453 2.87272 9.82552 3.46517 9.35156 4.19434L0.273438 19.3975C0.200521 19.5068 0.136719 19.6344 0.0820312 19.7803C0.0273438 19.9261 0 20.0719 0 20.2178V47.124C0 48.5094 0.501302 49.6943 1.50391 50.6787C2.50651 51.6631 3.70052 52.1553 5.08594 52.1553H29.2031C30.4792 53.2126 31.9284 54.042 33.5508 54.6436C35.1732 55.2451 36.8776 55.5459 38.6641 55.5459C40.7422 55.5459 42.7109 55.1449 44.5703 54.3428C46.3932 53.5407 47.9883 52.4561 49.3555 51.0889C50.7227 49.7217 51.8073 48.1266 52.6094 46.3037C53.4115 44.4443 53.8125 42.4756 53.8125 40.3975C53.8125 38.611 53.5117 36.9066 52.9102 35.2842C52.3086 33.6618 51.4792 32.2126 50.4219 30.9365ZM26.9062 5.12402H36.75C37.0417 5.12402 37.3151 5.19694 37.5703 5.34277C37.8255 5.48861 38.0443 5.68913 38.2266 5.94434L45.7734 18.5771H26.9062V5.12402ZM12.25 5.94434C12.3958 5.68913 12.5964 5.48861 12.8516 5.34277C13.1068 5.19694 13.3802 5.12402 13.6719 5.12402H23.5703V18.5771H4.64844L12.25 5.94434ZM3.39062 47.124V21.9131H47.0859V27.8193C45.8828 27.0173 44.5703 26.3975 43.1484 25.96C41.7266 25.5225 40.2318 25.3037 38.6641 25.3037C36.5859 25.3037 34.6354 25.6865 32.8125 26.4521C30.9531 27.2542 29.3398 28.3389 27.9727 29.7061C26.6055 31.0732 25.5208 32.6865 24.7188 34.5459C23.9531 36.3688 23.5703 38.3193 23.5703 40.3975C23.5703 41.9652 23.7891 43.46 24.2266 44.8818C24.6641 46.3037 25.2839 47.6162 26.0859 48.8193H5.08594C4.61198 48.8193 4.21094 48.6553 3.88281 48.3271C3.55469 47.999 3.39062 47.598 3.39062 47.124ZM38.6641 52.1553C37.0599 52.1553 35.5286 51.8454 34.0703 51.2256C32.6484 50.6058 31.4089 49.7673 30.3516 48.71C29.2943 47.6527 28.4557 46.4131 27.8359 44.9912C27.2161 43.5329 26.9062 42.0016 26.9062 40.3975C26.9062 38.7933 27.2161 37.262 27.8359 35.8037C28.4557 34.3818 29.2943 33.1423 30.3516 32.085C31.4089 31.0277 32.6484 30.1891 34.0703 29.5693C35.5286 28.9495 37.0599 28.6396 38.6641 28.6396C40.2682 28.6396 41.7995 28.9495 43.2578 29.5693C44.6797 30.1891 45.9193 31.0277 46.9766 32.085C48.0339 33.1423 48.8724 34.3818 49.4922 35.8037C50.112 37.262 50.4219 38.7933 50.4219 40.3975C50.4219 42.0016 50.112 43.5329 49.4922 44.9912C48.8724 46.4131 48.0339 47.6527 46.9766 48.71C45.9193 49.7673 44.6797 50.6058 43.2578 51.2256C41.7995 51.8454 40.2682 52.1553 38.6641 52.1553ZM36.9688 47.124C36.75 47.124 36.5404 47.0785 36.3398 46.9873C36.1393 46.8962 35.9661 46.7777 35.8203 46.6318L30.7344 41.6006C30.4062 41.2725 30.2422 40.8714 30.2422 40.3975C30.2422 39.9235 30.4062 39.5225 30.7344 39.1943C31.0625 38.8662 31.4635 38.7021 31.9375 38.7021C32.4115 38.7021 32.8125 38.8662 33.1406 39.1943L36.9688 43.0771L44.1875 35.8584C44.5156 35.5303 44.9167 35.3662 45.3906 35.3662C45.8646 35.3662 46.2656 35.5303 46.5938 35.8584C46.9219 36.1865 47.0859 36.5785 47.0859 37.0342C47.0859 37.4899 46.9219 37.8818 46.5938 38.21L38.1719 46.6318C38.026 46.7777 37.8438 46.8962 37.625 46.9873C37.4062 47.0785 37.1875 47.124 36.9688 47.124ZM16.8438 30.335H10.1172C9.64323 30.335 9.24219 30.1709 8.91406 29.8428C8.58594 29.5146 8.42188 29.1136 8.42188 28.6396C8.42188 28.1657 8.58594 27.7646 8.91406 27.4365C9.24219 27.1084 9.64323 26.9443 10.1172 26.9443H16.8438C17.2812 26.9443 17.6641 27.1084 17.9922 27.4365C18.3203 27.7646 18.4844 28.1657 18.4844 28.6396C18.4844 29.1136 18.3203 29.5146 17.9922 29.8428C17.6641 30.1709 17.2812 30.335 16.8438 30.335ZM50.4219 30.9365V20.2178C50.4219 20.0719 50.4036 19.9261 50.3672 19.7803C50.3307 19.6344 50.276 19.5068 50.2031 19.3975L41.0703 4.19434C40.6328 3.46517 40.0221 2.87272 39.2383 2.41699C38.4544 1.96126 37.625 1.7334 36.75 1.7334H13.6719C12.7969 1.7334 11.9766 1.96126 11.2109 2.41699C10.4453 2.87272 9.82552 3.46517 9.35156 4.19434L0.273438 19.3975C0.200521 19.5068 0.136719 19.6344 0.0820312 19.7803C0.0273438 19.9261 0 20.0719 0 20.2178V47.124C0 48.5094 0.501302 49.6943 1.50391 50.6787C2.50651 51.6631 3.70052 52.1553 5.08594 52.1553H29.2031C30.4792 53.2126 31.9284 54.042 33.5508 54.6436C35.1732 55.2451 36.8776 55.5459 38.6641 55.5459C40.7422 55.5459 42.7109 55.1449 44.5703 54.3428C46.3932 53.5407 47.9883 52.4561 49.3555 51.0889C50.7227 49.7217 51.8073 48.1266 52.6094 46.3037C53.4115 44.4443 53.8125 42.4756 53.8125 40.3975C53.8125 38.611 53.5117 36.9066 52.9102 35.2842C52.3086 33.6618 51.4792 32.2126 50.4219 30.9365ZM26.9062 5.12402H36.75C37.0417 5.12402 37.3151 5.19694 37.5703 5.34277C37.8255 5.48861 38.0443 5.68913 38.2266 5.94434L45.7734 18.5771H26.9062V5.12402ZM12.25 5.94434C12.3958 5.68913 12.5964 5.48861 12.8516 5.34277C13.1068 5.19694 13.3802 5.12402 13.6719 5.12402H23.5703V18.5771H4.64844L12.25 5.94434ZM3.39062 47.124V21.9131H47.0859V27.8193C45.8828 27.0173 44.5703 26.3975 43.1484 25.96C41.7266 25.5225 40.2318 25.3037 38.6641 25.3037C36.5859 25.3037 34.6354 25.6865 32.8125 26.4521C30.9531 27.2542 29.3398 28.3389 27.9727 29.7061C26.6055 31.0732 25.5208 32.6865 24.7188 34.5459C23.9531 36.3688 23.5703 38.3193 23.5703 40.3975C23.5703 41.9652 23.7891 43.46 24.2266 44.8818C24.6641 46.3037 25.2839 47.6162 26.0859 48.8193H5.08594C4.61198 48.8193 4.21094 48.6553 3.88281 48.3271C3.55469 47.999 3.39062 47.598 3.39062 47.124ZM38.6641 52.1553C37.0599 52.1553 35.5286 51.8454 34.0703 51.2256C32.6484 50.6058 31.4089 49.7673 30.3516 48.71C29.2943 47.6527 28.4557 46.4131 27.8359 44.9912C27.2161 43.5329 26.9062 42.0016 26.9062 40.3975C26.9062 38.7933 27.2161 37.262 27.8359 35.8037C28.4557 34.3818 29.2943 33.1423 30.3516 32.085C31.4089 31.0277 32.6484 30.1891 34.0703 29.5693C35.5286 28.9495 37.0599 28.6396 38.6641 28.6396C40.2682 28.6396 41.7995 28.9495 43.2578 29.5693C44.6797 30.1891 45.9193 31.0277 46.9766 32.085C48.0339 33.1423 48.8724 34.3818 49.4922 35.8037C50.112 37.262 50.4219 38.7933 50.4219 40.3975C50.4219 42.0016 50.112 43.5329 49.4922 44.9912C48.8724 46.4131 48.0339 47.6527 46.9766 48.71C45.9193 49.7673 44.6797 50.6058 43.2578 51.2256C41.7995 51.8454 40.2682 52.1553 38.6641 52.1553ZM36.9688 47.124C36.75 47.124 36.5404 47.0785 36.3398 46.9873C36.1393 46.8962 35.9661 46.7777 35.8203 46.6318L30.7344 41.6006C30.4062 41.2725 30.2422 40.8714 30.2422 40.3975C30.2422 39.9235 30.4062 39.5225 30.7344 39.1943C31.0625 38.8662 31.4635 38.7021 31.9375 38.7021C32.4115 38.7021 32.8125 38.8662 33.1406 39.1943L36.9688 43.0771L44.1875 35.8584C44.5156 35.5303 44.9167 35.3662 45.3906 35.3662C45.8646 35.3662 46.2656 35.5303 46.5938 35.8584C46.9219 36.1865 47.0859 36.5785 47.0859 37.0342C47.0859 37.4899 46.9219 37.8818 46.5938 38.21L38.1719 46.6318C38.026 46.7777 37.8438 46.8962 37.625 46.9873C37.4062 47.0785 37.1875 47.124 36.9688 47.124ZM16.8438 30.335H10.1172C9.64323 30.335 9.24219 30.1709 8.91406 29.8428C8.58594 29.5146 8.42188 29.1136 8.42188 28.6396C8.42188 28.1657 8.58594 27.7646 8.91406 27.4365C9.24219 27.1084 9.64323 26.9443 10.1172 26.9443H16.8438C17.2812 26.9443 17.6641 27.1084 17.9922 27.4365C18.3203 27.7646 18.4844 28.1657 18.4844 28.6396C18.4844 29.1136 18.3203 29.5146 17.9922 29.8428C17.6641 30.1709 17.2812 30.335 16.8438 30.335ZM49.4375 31.2646V20.2178C49.4375 20.1813 49.4284 20.1266 49.4102 20.0537C49.3919 19.9808 49.3646 19.9261 49.3281 19.8896L40.25 4.74121C39.8854 4.12142 39.3932 3.63835 38.7734 3.29199C38.1536 2.94564 37.4792 2.77246 36.75 2.77246H13.6719C12.9792 2.77246 12.3229 2.94564 11.7031 3.29199C11.0833 3.63835 10.5911 4.12142 10.2266 4.74121L1.14844 19.8896C1.11198 19.9261 1.08464 19.9808 1.06641 20.0537C1.04818 20.1266 1.03906 20.1813 1.03906 20.2178V47.124C1.03906 48.2178 1.43099 49.1657 2.21484 49.9678C2.9987 50.7699 3.95573 51.1709 5.08594 51.1709H29.5312L29.8047 51.3896C31.0078 52.374 32.3659 53.1396 33.8789 53.6865C35.3919 54.2334 36.987 54.5068 38.6641 54.5068C40.5964 54.5068 42.4193 54.1423 44.1328 53.4131C45.8464 52.6839 47.3503 51.6722 48.6445 50.3779C49.9388 49.0837 50.9505 47.5798 51.6797 45.8662C52.4089 44.1527 52.7734 42.3298 52.7734 40.3975C52.7734 38.7204 52.5 37.1253 51.9531 35.6123C51.4062 34.0993 50.6406 32.7412 49.6562 31.5381L49.4375 31.2646ZM41.0703 4.19434L50.2031 19.3975C50.276 19.5068 50.3307 19.6344 50.3672 19.7803C50.4036 19.9261 50.4219 20.0719 50.4219 20.2178V30.9365C51.4792 32.2126 52.3086 33.6618 52.9102 35.2842C53.5117 36.9066 53.8125 38.611 53.8125 40.3975C53.8125 42.4756 53.4115 44.4443 52.6094 46.3037C51.8073 48.1266 50.7227 49.7217 49.3555 51.0889C47.9883 52.4561 46.3932 53.5407 44.5703 54.3428C42.7109 55.1449 40.7422 55.5459 38.6641 55.5459C36.8776 55.5459 35.1732 55.2451 33.5508 54.6436C31.9284 54.042 30.4792 53.2126 29.2031 52.1553H5.08594C3.70052 52.1553 2.50651 51.6631 1.50391 50.6787C0.501302 49.6943 0 48.5094 0 47.124V20.2178C0 20.0719 0.0273438 19.9261 0.0820312 19.7803C0.136719 19.6344 0.200521 19.5068 0.273438 19.3975L9.35156 4.19434C9.82552 3.46517 10.4453 2.87272 11.2109 2.41699C11.9766 1.96126 12.7969 1.7334 13.6719 1.7334H36.75C37.625 1.7334 38.4544 1.96126 39.2383 2.41699C40.0221 2.87272 40.6328 3.46517 41.0703 4.19434ZM25.9219 4.13965V19.5615H47.5234L39.0469 5.39746C38.8281 4.99642 38.5091 4.68652 38.0898 4.46777C37.6706 4.24902 37.224 4.13965 36.75 4.13965H25.9219ZM12.25 5.94434C12.3958 5.68913 12.5964 5.48861 12.8516 5.34277C13.1068 5.19694 13.3802 5.12402 13.6719 5.12402H23.5703V18.5771H4.64844L12.25 5.94434ZM11.375 5.39746L2.89844 19.5615H24.5547V4.13965H13.6719C13.1979 4.13965 12.7604 4.24902 12.3594 4.46777C11.9583 4.68652 11.6302 4.99642 11.375 5.39746ZM2.40625 20.9287V47.124C2.40625 47.8532 2.66146 48.4821 3.17188 49.0107C3.68229 49.5394 4.32031 49.8037 5.08594 49.8037H28L26.9062 48.2178C26.1771 47.124 25.6029 45.9118 25.1836 44.5811C24.7643 43.2503 24.5547 41.8558 24.5547 40.3975C24.5547 38.4652 24.9193 36.6423 25.6484 34.9287C26.3776 33.2152 27.3893 31.7113 28.6836 30.417C29.9779 29.1227 31.4818 28.111 33.1953 27.3818C34.9089 26.6527 36.7318 26.2881 38.6641 26.2881C40.1224 26.2881 41.5169 26.4977 42.8477 26.917C44.1784 27.3363 45.3906 27.9105 46.4844 28.6396L48.0703 29.7334V20.9287H2.40625ZM36.9688 44.499L32.4297 39.9053C32.2839 39.7959 32.1198 39.7412 31.9375 39.7412C31.7552 39.7412 31.5911 39.7959 31.4453 39.9053C31.3359 40.0511 31.2812 40.2152 31.2812 40.3975C31.2812 40.5798 31.3359 40.7438 31.4453 40.8896L36.5312 45.9209C36.5677 45.9938 36.6315 46.0485 36.7227 46.085C36.8138 46.1214 36.8958 46.1396 36.9688 46.1396C37.0781 46.1396 37.1693 46.1214 37.2422 46.085C37.3151 46.0485 37.388 45.9938 37.4609 45.9209L45.8828 37.499C45.9922 37.3896 46.0469 37.2347 46.0469 37.0342C46.0469 36.8337 45.9922 36.6787 45.8828 36.5693C45.737 36.4235 45.5729 36.3506 45.3906 36.3506C45.2083 36.3506 45.0443 36.4235 44.8984 36.5693L36.9688 44.499ZM26.9062 18.5771V5.12402H36.75C37.0417 5.12402 37.3151 5.19694 37.5703 5.34277C37.8255 5.48861 38.0443 5.68913 38.2266 5.94434L45.7734 18.5771H26.9062ZM46.0469 27.2178C44.9531 26.598 43.7865 26.124 42.5469 25.7959C41.3073 25.4678 40.013 25.3037 38.6641 25.3037C36.5859 25.3037 34.6354 25.6865 32.8125 26.4521C30.9531 27.2542 29.3398 28.3389 27.9727 29.7061C26.6055 31.0732 25.5208 32.6865 24.7188 34.5459C23.9531 36.3688 23.5703 38.3193 23.5703 40.3975C23.5703 41.7464 23.7344 43.0407 24.0625 44.2803C24.3906 45.5199 24.8646 46.6865 25.4844 47.7803C25.5938 47.9626 25.694 48.1357 25.7852 48.2998C25.8763 48.4639 25.9766 48.637 26.0859 48.8193H5.08594C4.61198 48.8193 4.21094 48.6553 3.88281 48.3271C3.55469 47.999 3.39062 47.598 3.39062 47.124V21.9131H47.0859V27.8193C46.9036 27.71 46.7305 27.6097 46.5664 27.5186C46.4023 27.4274 46.2292 27.3271 46.0469 27.2178ZM38.6641 53.1396C36.9141 53.1396 35.2552 52.8115 33.6875 52.1553C32.1562 51.499 30.8073 50.5876 29.6406 49.4209C28.474 48.2542 27.5625 46.9053 26.9062 45.374C26.25 43.8063 25.9219 42.1475 25.9219 40.3975C25.9219 38.6475 26.25 36.9886 26.9062 35.4209C27.5625 33.8896 28.474 32.5407 29.6406 31.374C30.8073 30.2074 32.1562 29.2959 33.6875 28.6396C35.2552 27.9834 36.9141 27.6553 38.6641 27.6553C40.4141 27.6553 42.0729 27.9834 43.6406 28.6396C45.1719 29.2959 46.5208 30.2074 47.6875 31.374C48.8542 32.5407 49.7656 33.8896 50.4219 35.4209C51.0781 36.9886 51.4062 38.6475 51.4062 40.3975C51.4062 42.1475 51.0781 43.8063 50.4219 45.374C49.7656 46.9053 48.8542 48.2542 47.6875 49.4209C46.5208 50.5876 45.1719 51.499 43.6406 52.1553C42.0729 52.8115 40.4141 53.1396 38.6641 53.1396ZM36.9688 43.0771L44.1875 35.8584C44.5156 35.5303 44.9167 35.3662 45.3906 35.3662C45.8646 35.3662 46.2656 35.5303 46.5938 35.8584C46.9219 36.1865 47.0859 36.5785 47.0859 37.0342C47.0859 37.4899 46.9219 37.8818 46.5938 38.21L38.1719 46.6318C38.026 46.7777 37.8438 46.8962 37.625 46.9873C37.4062 47.0785 37.1875 47.124 36.9688 47.124C36.75 47.124 36.5404 47.0785 36.3398 46.9873C36.1393 46.8962 35.9661 46.7777 35.8203 46.6318L30.7344 41.6006C30.4062 41.2725 30.2422 40.8714 30.2422 40.3975C30.2422 39.9235 30.4062 39.5225 30.7344 39.1943C31.0625 38.8662 31.4635 38.7021 31.9375 38.7021C32.4115 38.7021 32.8125 38.8662 33.1406 39.1943L36.9688 43.0771ZM10.1172 29.2959C9.9349 29.2959 9.77083 29.2321 9.625 29.1045C9.47917 28.9769 9.40625 28.8219 9.40625 28.6396C9.40625 28.4574 9.47917 28.3024 9.625 28.1748C9.77083 28.0472 9.9349 27.9834 10.1172 27.9834H16.8438C17.026 27.9834 17.181 28.0472 17.3086 28.1748C17.4362 28.3024 17.5 28.4574 17.5 28.6396C17.5 28.8219 17.4362 28.9769 17.3086 29.1045C17.181 29.2321 17.026 29.2959 16.8438 29.2959H10.1172ZM26.9062 40.3975C26.9062 42.0016 27.2161 43.5329 27.8359 44.9912C28.4557 46.4131 29.2943 47.6527 30.3516 48.71C31.4089 49.7673 32.6484 50.6058 34.0703 51.2256C35.5286 51.8454 37.0599 52.1553 38.6641 52.1553C40.2682 52.1553 41.7995 51.8454 43.2578 51.2256C44.6797 50.6058 45.9193 49.7673 46.9766 48.71C48.0339 47.6527 48.8724 46.4131 49.4922 44.9912C50.112 43.5329 50.4219 42.0016 50.4219 40.3975C50.4219 38.7933 50.112 37.262 49.4922 35.8037C48.8724 34.3818 48.0339 33.1423 46.9766 32.085C45.9193 31.0277 44.6797 30.1891 43.2578 29.5693C41.7995 28.9495 40.2682 28.6396 38.6641 28.6396C37.0599 28.6396 35.5286 28.9495 34.0703 29.5693C32.6484 30.1891 31.4089 31.0277 30.3516 32.085C29.2943 33.1423 28.4557 34.3818 27.8359 35.8037C27.2161 37.262 26.9062 38.7933 26.9062 40.3975ZM10.1172 30.335H16.8438C17.2812 30.335 17.6641 30.1709 17.9922 29.8428C18.3203 29.5146 18.4844 29.1136 18.4844 28.6396C18.4844 28.1657 18.3203 27.7646 17.9922 27.4365C17.6641 27.1084 17.2812 26.9443 16.8438 26.9443H10.1172C9.64323 26.9443 9.24219 27.1084 8.91406 27.4365C8.58594 27.7646 8.42188 28.1657 8.42188 28.6396C8.42188 29.1136 8.58594 29.5146 8.91406 29.8428C9.24219 30.1709 9.64323 30.335 10.1172 30.335Z" fill="#2EBB77"/>
</svg>
