<svg width="15" height="14" viewBox="0 0 15 14" fill="none" xmlns="http://www.w3.org/2000/svg">
<path d="M7.24609 0.178711C7.51953 0.178711 7.75391 0.276367 7.94922 0.47168C8.14453 0.666992 8.24219 0.901367 8.24219 1.1748V12.4248C8.24219 12.6982 8.14453 12.9326 7.94922 13.1279C7.75391 13.3232 7.51953 13.4209 7.24609 13.4209C6.97266 13.4209 6.73828 13.3232 6.54297 13.1279C6.34766 12.9326 6.25 12.6982 6.25 12.4248V1.1748C6.25 0.901367 6.34766 0.666992 6.54297 0.47168C6.73828 0.276367 6.97266 0.178711 7.24609 0.178711ZM0 1.1748C0 0.901367 0.0976562 0.666992 0.292969 0.47168C0.488281 0.276367 0.722656 0.178711 0.996094 0.178711H13.4961C13.7695 0.178711 14.0039 0.276367 14.1992 0.47168C14.3945 0.666992 14.4922 0.901367 14.4922 1.1748V3.6748C14.4922 3.94824 14.3945 4.18262 14.1992 4.37793C14.0039 4.57324 13.7695 4.6709 13.4961 4.6709C13.2227 4.6709 12.9883 4.57324 12.793 4.37793C12.5977 4.18262 12.5 3.94824 12.5 3.6748V2.1709H1.99219V3.6748C1.99219 3.94824 1.89453 4.18262 1.69922 4.37793C1.50391 4.57324 1.26953 4.6709 0.996094 4.6709C0.722656 4.6709 0.488281 4.57324 0.292969 4.37793C0.0976562 4.18262 0 3.94824 0 3.6748V1.1748ZM3.75 12.4248C3.75 12.1514 3.84766 11.917 4.04297 11.7217C4.23828 11.5264 4.47266 11.4287 4.74609 11.4287H9.74609C10.0195 11.4287 10.2539 11.5264 10.4492 11.7217C10.6445 11.917 10.7422 12.1514 10.7422 12.4248C10.7422 12.6982 10.6445 12.9326 10.4492 13.1279C10.2539 13.3232 10.0195 13.4209 9.74609 13.4209H4.74609C4.47266 13.4209 4.23828 13.3232 4.04297 13.1279C3.84766 12.9326 3.75 12.6982 3.75 12.4248Z" fill="#2EBB77"/>
</svg>
