<svg width="16" height="16" viewBox="0 0 16 16" fill="none" xmlns="http://www.w3.org/2000/svg">
<path d="M14.5 5.2998C14.6693 5.2998 14.8288 5.26725 14.9785 5.20215C15.1283 5.13704 15.2617 5.0459 15.3789 4.92871C15.4961 4.81152 15.5872 4.67806 15.6523 4.52832C15.7174 4.37858 15.75 4.21908 15.75 4.0498V1.5498C15.75 1.38053 15.7174 1.22103 15.6523 1.07129C15.5872 0.92155 15.4961 0.788086 15.3789 0.670898C15.2617 0.553711 15.1283 0.462565 14.9785 0.397461C14.8288 0.332356 14.6693 0.299805 14.5 0.299805H12C11.8307 0.299805 11.6712 0.332356 11.5215 0.397461C11.3717 0.462565 11.2383 0.553711 11.1211 0.670898C11.0039 0.788086 10.9128 0.92155 10.8477 1.07129C10.7826 1.22103 10.75 1.38053 10.75 1.5498V2.1748H5.75V1.5498C5.75 1.38053 5.71745 1.22103 5.65234 1.07129C5.58724 0.92155 5.49609 0.788086 5.37891 0.670898C5.26172 0.553711 5.12826 0.462565 4.97852 0.397461C4.82878 0.332356 4.66927 0.299805 4.5 0.299805H2C1.83073 0.299805 1.67122 0.332356 1.52148 0.397461C1.37174 0.462565 1.23828 0.553711 1.12109 0.670898C1.00391 0.788086 0.91276 0.92155 0.847656 1.07129C0.782552 1.22103 0.75 1.38053 0.75 1.5498V4.0498C0.75 4.21908 0.782552 4.37858 0.847656 4.52832C0.91276 4.67806 1.00391 4.81152 1.12109 4.92871C1.23828 5.0459 1.37174 5.13704 1.52148 5.20215C1.67122 5.26725 1.83073 5.2998 2 5.2998H2.625V10.2998H2C1.83073 10.2998 1.67122 10.3324 1.52148 10.3975C1.37174 10.4626 1.23828 10.5537 1.12109 10.6709C1.00391 10.7881 0.91276 10.9215 0.847656 11.0713C0.782552 11.221 0.75 11.3805 0.75 11.5498V14.0498C0.75 14.2191 0.782552 14.3786 0.847656 14.5283C0.91276 14.6781 1.00391 14.8115 1.12109 14.9287C1.23828 15.0459 1.37174 15.137 1.52148 15.2021C1.67122 15.2673 1.83073 15.2998 2 15.2998H4.5C4.66927 15.2998 4.82878 15.2673 4.97852 15.2021C5.12826 15.137 5.26172 15.0459 5.37891 14.9287C5.49609 14.8115 5.58724 14.6781 5.65234 14.5283C5.71745 14.3786 5.75 14.2191 5.75 14.0498V13.4248H10.75V14.0498C10.75 14.2191 10.7826 14.3786 10.8477 14.5283C10.9128 14.6781 11.0039 14.8115 11.1211 14.9287C11.2383 15.0459 11.3717 15.137 11.5215 15.2021C11.6712 15.2673 11.8307 15.2998 12 15.2998H14.5C14.6693 15.2998 14.8288 15.2673 14.9785 15.2021C15.1283 15.137 15.2617 15.0459 15.3789 14.9287C15.4961 14.8115 15.5872 14.6781 15.6523 14.5283C15.7174 14.3786 15.75 14.2191 15.75 14.0498V11.5498C15.75 11.3805 15.7174 11.221 15.6523 11.0713C15.5872 10.9215 15.4961 10.7881 15.3789 10.6709C15.2617 10.5537 15.1283 10.4626 14.9785 10.3975C14.8288 10.3324 14.6693 10.2998 14.5 10.2998H13.875V5.2998H14.5ZM12.625 10.2998H12C11.8307 10.2998 11.6712 10.3324 11.5215 10.3975C11.3717 10.4626 11.2383 10.5537 11.1211 10.6709C11.0039 10.7881 10.9128 10.9215 10.8477 11.0713C10.7826 11.221 10.75 11.3805 10.75 11.5498V12.1748H5.75V11.5498C5.75 11.3805 5.71745 11.221 5.65234 11.0713C5.58724 10.9215 5.49609 10.7881 5.37891 10.6709C5.26172 10.5537 5.12826 10.4626 4.97852 10.3975C4.82878 10.3324 4.66927 10.2998 4.5 10.2998H3.875V5.2998H4.5C4.66927 5.2998 4.82878 5.26725 4.97852 5.20215C5.12826 5.13704 5.26172 5.0459 5.37891 4.92871C5.49609 4.81152 5.58724 4.67806 5.65234 4.52832C5.71745 4.37858 5.75 4.21908 5.75 4.0498V3.4248H10.75V4.0498C10.75 4.21908 10.7826 4.37858 10.8477 4.52832C10.9128 4.67806 11.0039 4.81152 11.1211 4.92871C11.2383 5.0459 11.3717 5.13704 11.5215 5.20215C11.6712 5.26725 11.8307 5.2998 12 5.2998H12.625V10.2998Z" fill="#B479D9"/>
</svg>
