<svg width="18" height="21" viewBox="0 0 18 21" fill="none" xmlns="http://www.w3.org/2000/svg">
<path d="M8.4375 10.3638C8.59375 10.1034 8.80859 9.89502 9.08203 9.73877C9.35547 9.58252 9.64844 9.50439 9.96094 9.50439C10.0651 9.50439 10.166 9.51416 10.2637 9.53369C10.3613 9.55322 10.4557 9.58252 10.5469 9.62158V5.3833C10.5469 5.22705 10.4883 5.09033 10.3711 4.97314C10.2539 4.85596 10.1172 4.79736 9.96094 4.79736H0.585938C0.429688 4.79736 0.292969 4.85596 0.175781 4.97314C0.0585938 5.09033 0 5.22705 0 5.3833V14.7583C0 14.9146 0.0585938 15.0513 0.175781 15.1685C0.292969 15.2856 0.429688 15.3442 0.585938 15.3442H5.58594L8.4375 10.3638ZM12.3047 0.109863C11.7318 0.109863 11.1849 0.194498 10.6641 0.36377C10.1432 0.546061 9.66797 0.793457 9.23828 1.10596C8.80859 1.41846 8.43099 1.78955 8.10547 2.21924C7.79297 2.64893 7.54557 3.11768 7.36328 3.62549H9.96094C10.4427 3.62549 10.8561 3.79801 11.2012 4.14307C11.5462 4.48812 11.7188 4.90153 11.7188 5.3833V10.6177C11.8099 10.6307 11.9043 10.6405 12.002 10.647C12.0996 10.6535 12.2005 10.6567 12.3047 10.6567C13.0339 10.6567 13.7174 10.52 14.3555 10.2466C14.9935 9.96012 15.5534 9.57926 16.0352 9.104C16.5169 8.62874 16.8945 8.0721 17.168 7.43408C17.4414 6.79606 17.5781 6.11247 17.5781 5.3833C17.5781 4.65413 17.4414 3.97054 17.168 3.33252C16.8945 2.6945 16.5169 2.13786 16.0352 1.6626C15.5534 1.18734 14.9935 0.806479 14.3555 0.52002C13.7174 0.246582 13.0339 0.109863 12.3047 0.109863ZM14.6484 20.1099H5.27344C5.16927 20.1099 5.07161 20.0838 4.98047 20.0317C4.88932 19.9797 4.81771 19.908 4.76562 19.8169C4.71354 19.7257 4.6875 19.6281 4.6875 19.5239C4.6875 19.4198 4.71354 19.3221 4.76562 19.231L9.45312 10.9497C9.55729 10.7674 9.72656 10.6763 9.96094 10.6763C10.1953 10.6763 10.3646 10.7674 10.4688 10.9497L15.1562 19.231C15.2083 19.3221 15.2344 19.4198 15.2344 19.5239C15.2344 19.6281 15.2083 19.7257 15.1562 19.8169C15.1042 19.908 15.0326 19.9797 14.9414 20.0317C14.8503 20.0838 14.7526 20.1099 14.6484 20.1099Z" fill="#FCA68D"/>
</svg>
