<svg width="17" height="14" viewBox="0 0 17 14" fill="none" xmlns="http://www.w3.org/2000/svg">
<path d="M12 4.92236C12 5.05257 11.9772 5.17301 11.9316 5.28369C11.8861 5.39437 11.8177 5.49528 11.7266 5.58643C11.6354 5.67757 11.5345 5.74593 11.4238 5.7915C11.3132 5.83708 11.1927 5.85986 11.0625 5.85986C10.9323 5.85986 10.8118 5.83708 10.7012 5.7915C10.5905 5.74593 10.4896 5.67757 10.3984 5.58643C10.3073 5.49528 10.2389 5.39437 10.1934 5.28369C10.1478 5.17301 10.125 5.05257 10.125 4.92236C10.125 4.79216 10.1478 4.67171 10.1934 4.56104C10.2389 4.45036 10.3073 4.34945 10.3984 4.2583C10.4896 4.16716 10.5905 4.0988 10.7012 4.05322C10.8118 4.00765 10.9323 3.98486 11.0625 3.98486C11.1927 3.98486 11.3132 4.00765 11.4238 4.05322C11.5345 4.0988 11.6354 4.16716 11.7266 4.2583C11.8177 4.34945 11.8861 4.45036 11.9316 4.56104C11.9772 4.67171 12 4.79216 12 4.92236ZM17 1.48486V12.7349C17 12.9041 16.9674 13.0636 16.9023 13.2134C16.8372 13.3631 16.7461 13.4966 16.6289 13.6138C16.5117 13.731 16.3783 13.8221 16.2285 13.8872C16.0788 13.9523 15.9193 13.9849 15.75 13.9849H2C1.83073 13.9849 1.67122 13.9523 1.52148 13.8872C1.37174 13.8221 1.23828 13.731 1.12109 13.6138C1.00391 13.4966 0.91276 13.3631 0.847656 13.2134C0.782552 13.0636 0.75 12.9041 0.75 12.7349V1.48486C0.75 1.31559 0.782552 1.15609 0.847656 1.00635C0.91276 0.856608 1.00391 0.723145 1.12109 0.605957C1.23828 0.48877 1.37174 0.397624 1.52148 0.33252C1.67122 0.267415 1.83073 0.234863 2 0.234863H15.75C15.9193 0.234863 16.0788 0.267415 16.2285 0.33252C16.3783 0.397624 16.5117 0.48877 16.6289 0.605957C16.7461 0.723145 16.8372 0.856608 16.9023 1.00635C16.9674 1.15609 17 1.31559 17 1.48486ZM15.75 9.98096V1.48486H2V8.73096L4.87109 5.85986C4.98828 5.74268 5.12174 5.65153 5.27148 5.58643C5.42122 5.52132 5.58073 5.48877 5.75 5.48877C5.91927 5.48877 6.07878 5.52132 6.22852 5.58643C6.37826 5.65153 6.51172 5.74268 6.62891 5.85986L10.125 9.35596L11.7461 7.73486C11.8633 7.61768 11.9967 7.52653 12.1465 7.46143C12.2962 7.39632 12.4557 7.36377 12.625 7.36377C12.7943 7.36377 12.9538 7.39632 13.1035 7.46143C13.2533 7.52653 13.3867 7.61768 13.5039 7.73486L15.75 9.98096Z" fill="#2EBB77"/>
</svg>
