<svg width="276" height="25" viewBox="0 0 276 25" fill="none" xmlns="http://www.w3.org/2000/svg">
<mask id="mask0_8360_20585" style="mask-type:alpha" maskUnits="userSpaceOnUse" x="0" y="0" width="276" height="25">
<g clip-path="url(#clip0_8360_20585)">
<g clip-path="url(#clip1_8360_20585)">
<path fill-rule="evenodd" clip-rule="evenodd" d="M147.509 2.96381C148.931 3.73563 150.536 5.27619 150.015 7.62049C149.078 11.8394 144.924 13.6564 141.198 14.5667C140.521 14.7322 139.833 14.8739 139.147 14.9968C141.608 16.4928 144.422 17.5646 146.083 18.0837C155.156 20.919 164.877 20.896 174.598 20.8731C175.469 20.871 176.34 20.869 177.21 20.869C192.781 20.869 208.173 20.0406 223.603 18.0281C225.45 17.7871 227.328 17.5504 229.23 17.3107C244.302 15.4112 260.802 13.3318 274.196 7.59125C274.958 7.26492 275.84 7.61765 276.166 8.37909C276.492 9.14054 276.14 10.0224 275.378 10.3487C261.565 16.2687 244.609 18.4012 229.6 20.2888C227.696 20.5284 225.822 20.764 223.991 21.0029C208.411 23.035 192.887 23.869 177.21 23.869C176.326 23.869 175.437 23.8714 174.543 23.8738C164.908 23.9 154.726 23.9277 145.188 20.9472C143.157 20.3126 139.454 18.8965 136.447 16.8214C135.895 16.441 135.355 16.0297 134.845 15.5872C134.371 15.6384 133.921 15.6846 133.494 15.7284C132.471 15.8333 131.587 15.9241 130.848 16.0359C105.788 19.833 79.6071 17.8755 54.6951 15.7996C52.1324 15.586 49.5564 15.3834 46.9714 15.18C31.9959 14.0021 16.7194 12.8004 1.99448 9.31301C1.18836 9.12208 0.689639 8.31381 0.880563 7.50769C1.07149 6.70156 1.87975 6.20284 2.68588 6.39377C17.1659 9.82324 32.1803 11.0055 47.1652 12.1855C49.7601 12.3898 52.3541 12.5941 54.9443 12.8099C79.8961 14.8892 105.737 16.8064 130.399 13.0698C130.995 12.9795 131.705 12.8989 132.474 12.8178C131.606 11.3186 131.23 9.5687 131.791 7.67538C132.129 6.53552 133.007 5.66798 133.877 5.03644C134.779 4.38089 135.876 3.83288 136.966 3.39246C139.125 2.52097 141.544 1.95949 142.955 1.88891C144.26 1.82366 146.066 2.1803 147.509 2.96381ZM135.91 12.4452C137.431 12.2578 139.003 12.0149 140.486 11.6524C144.16 10.7548 146.567 9.3067 147.087 6.9697C147.17 6.5935 147.05 6.1283 146.078 5.60035C145.127 5.08409 143.87 4.84695 143.105 4.88517C142.118 4.93453 140.034 5.38905 138.09 6.17419C137.129 6.5621 136.275 7.00257 135.64 7.46372C134.972 7.94889 134.727 8.32628 134.667 8.52765C134.369 9.53327 134.551 10.4771 135.147 11.4424C135.355 11.7796 135.611 12.1144 135.91 12.4452Z" fill="black"/>
</g>
</g>
</mask>
<g mask="url(#mask0_8360_20585)">
<rect x="0.339844" y="0.939941" width="275.44" height="24" fill="#2EBB77"/>
</g>
<defs>
<clipPath id="clip0_8360_20585">
<rect width="275.44" height="24" fill="white" transform="translate(0.339844 0.939941)"/>
</clipPath>
<clipPath id="clip1_8360_20585">
<rect width="276" height="23" fill="white" transform="translate(0.339844 0.939941)"/>
</clipPath>
</defs>
</svg>
