<svg width="13" height="11" viewBox="0 0 13 11" fill="" xmlns="http://www.w3.org/2000/svg">
<path d="M0.140625 5.97998C0.140625 5.84456 0.190104 5.72738 0.289062 5.62842C0.388021 5.52946 0.505208 5.47998 0.640625 5.47998H11.6406C11.776 5.47998 11.8932 5.52946 11.9922 5.62842C12.0911 5.72738 12.1406 5.84456 12.1406 5.97998C12.1406 6.1154 12.0911 6.23258 11.9922 6.33154C11.8932 6.4305 11.776 6.47998 11.6406 6.47998H0.640625C0.505208 6.47998 0.388021 6.4305 0.289062 6.33154C0.190104 6.23258 0.140625 6.1154 0.140625 5.97998ZM6.78125 1.12061C6.88542 1.02686 7.00521 0.97998 7.14062 0.97998C7.27604 0.97998 7.39583 1.02686 7.5 1.12061L12 5.62061C12.0938 5.72477 12.1406 5.84456 12.1406 5.97998C12.1406 6.1154 12.0938 6.23519 12 6.33936L7.5 10.8394C7.39583 10.9331 7.27604 10.98 7.14062 10.98C7.00521 10.98 6.88542 10.9331 6.78125 10.8394C6.6875 10.7352 6.64062 10.6154 6.64062 10.48C6.64062 10.3446 6.6875 10.2248 6.78125 10.1206L10.9375 5.97998L6.78125 1.83936C6.6875 1.73519 6.64062 1.6154 6.64062 1.47998C6.64062 1.34456 6.6875 1.22477 6.78125 1.12061Z" fill=""/>
</svg>
