<svg width="24" height="17" viewBox="0 0 24 17" fill="none" xmlns="http://www.w3.org/2000/svg">
<path d="M23.2188 0.701172C23.4062 0.909505 23.5 1.14909 23.5 1.41992C23.5 1.69075 23.4062 1.93034 23.2188 2.13867L9.21875 16.1387C9.01042 16.3262 8.77083 16.4199 8.5 16.4199C8.22917 16.4199 7.98958 16.3262 7.78125 16.1387L0.78125 9.13867C0.59375 8.93034 0.5 8.69076 0.5 8.41992C0.5 8.14909 0.59375 7.9095 0.78125 7.70117C0.989583 7.51367 1.22917 7.41992 1.5 7.41992C1.77083 7.41992 2.01042 7.51367 2.21875 7.70117L8.5 14.0137L21.7812 0.701172C21.9896 0.513672 22.2292 0.419922 22.5 0.419922C22.7708 0.419922 23.0104 0.513672 23.2188 0.701172Z" fill="#11B196"/>
</svg>
