<svg width="18" height="13" viewBox="0 0 18 13" fill="none" xmlns="http://www.w3.org/2000/svg">
<path d="M17.0391 0.801025C17.1797 0.957275 17.25 1.13696 17.25 1.34009C17.25 1.54321 17.1797 1.7229 17.0391 1.87915L6.53906 12.3792C6.38281 12.5198 6.20312 12.5901 6 12.5901C5.79688 12.5901 5.61719 12.5198 5.46094 12.3792L0.210938 7.12915C0.0703125 6.9729 0 6.79321 0 6.59009C0 6.38696 0.0703125 6.20728 0.210938 6.05103C0.367188 5.9104 0.546875 5.84009 0.75 5.84009C0.953125 5.84009 1.13281 5.9104 1.28906 6.05103L6 10.7854L15.9609 0.801025C16.1172 0.6604 16.2969 0.590088 16.5 0.590088C16.7031 0.590088 16.8828 0.6604 17.0391 0.801025Z" fill="#11B196"/>
</svg>
