<svg width="19" height="19" viewBox="0 0 19 19" fill="none" xmlns="http://www.w3.org/2000/svg">
<g clip-path="url(#clip0_8360_20973)">
<g clip-path="url(#clip1_8360_20973)">
<path d="M18.0293 9.69995C18.0293 8.66895 17.8458 7.68045 17.5093 6.76595C17.2793 9.46045 15.8428 10.8444 14.3418 10.1999C12.9358 9.59595 13.8833 7.24145 13.9533 6.11795C14.0713 4.21345 13.9473 2.03345 10.4878 0.220947C11.9253 2.97095 10.6543 4.67945 9.3213 4.78345C7.8423 4.89895 6.4878 3.51245 6.9878 1.26245C5.3688 2.45545 5.3218 4.46345 5.8213 5.76245C6.3423 7.11645 5.8003 8.24145 4.5298 8.36645C3.1098 8.50645 2.3208 6.84595 3.0483 4.19995C1.7893 5.68245 1.0293 7.60245 1.0293 9.69995C1.0293 14.3944 4.8348 18.1999 9.5293 18.1999C14.2238 18.1999 18.0293 14.3944 18.0293 9.69995Z" fill="#F4900C"/>
<path d="M14.7263 12.1994C14.8003 13.7414 13.4458 14.3459 12.7168 14.0539C11.6638 13.6324 11.9463 12.9084 11.6753 11.4084C11.4043 9.90845 10.3628 8.86695 8.8213 8.40845C9.9463 11.5749 8.1978 12.7419 7.2813 12.9504C6.3453 13.1634 5.4048 12.9499 5.2973 10.9469C4.2053 12.0339 3.5293 13.5379 3.5293 15.1999C3.5293 15.3839 3.5408 15.5649 3.5568 15.7449C5.0918 17.2619 7.2003 18.1999 9.5293 18.1999C11.8583 18.1999 13.9668 17.2619 15.5018 15.7449C15.5178 15.5649 15.5293 15.3839 15.5293 15.1999C15.5293 14.1064 15.2373 13.0819 14.7263 12.1994Z" fill="#FFCC4D"/>
</g>
</g>
<defs>
<clipPath id="clip0_8360_20973">
<rect width="18" height="18" fill="white" transform="translate(0.529297 0.199951)"/>
</clipPath>
<clipPath id="clip1_8360_20973">
<rect width="18" height="18" fill="white" transform="translate(0.529297 0.199951)"/>
</clipPath>
</defs>
</svg>
