<?xml version="1.0" encoding="iso-8859-1"?>
<!-- Generator: Adobe Illustrator 19.1.0, SVG Export Plug-In . SVG Version: 6.00 Build 0)  -->
<svg version="1.1" id="Capa_1" xmlns="http://www.w3.org/2000/svg" xmlns:xlink="http://www.w3.org/1999/xlink" x="0px" y="0px"
	 viewBox="0 0 63.004 63.004" style="enable-background:new 0 0 63.004 63.004;" xml:space="preserve">
<g>
	<g id="group-31svg">
		<path id="path-1_23_" d="M43.866,61.502H19.137c-5.448,0-10.184-3.445-11.786-8.571L0.572,31.387
			c-1.175-3.76-0.521-7.72,1.793-10.867c2.344-3.189,5.986-5.018,9.992-5.018h38.289c3.994,0,7.632,1.831,9.978,5.023
			c2.327,3.163,2.985,7.138,1.808,10.906l-6.781,21.554C54.059,58.078,49.323,61.502,43.866,61.502z M12.357,18.502
			c-3.041,0-5.802,1.383-7.575,3.795c-1.742,2.37-2.234,5.356-1.348,8.192l6.779,21.544c1.21,3.87,4.795,6.469,8.924,6.469h24.729
			c4.137,0,7.723-2.578,8.923-6.415l6.781-21.554c0.888-2.844,0.392-5.845-1.362-8.231c-1.776-2.415-4.532-3.8-7.562-3.8H12.357z"/>
		<path id="path-2_23_" d="M47.385,18.002c-0.828,0-1.5-0.671-1.5-1.5v-5.5c0-3.584-3.343-6.5-6.927-6.5h-15
			c-3.584,0-6.073,2.916-6.073,6.5v5.5c0,0.829-0.672,1.5-1.5,1.5c-0.828,0-1.5-0.671-1.5-1.5v-5.5c0-5.238,3.835-9.5,9.073-9.5h15
			c5.239,0,9.927,4.262,9.927,9.5v5.5C48.885,17.331,48.213,18.002,47.385,18.002z"/>
		<path id="path-3_22_" d="M36.164,60.519c-0.574,0-1.122-0.331-1.371-0.889l-3.49-7.805c-0.336-0.75-0.005-1.631,0.742-1.974
			l12.293-5.661c0.364-0.167,0.782-0.182,1.156-0.041c0.376,0.142,0.678,0.428,0.841,0.794l5.476,12.294
			c0.337,0.757-0.003,1.644-0.76,1.981c-0.757,0.336-1.642-0.004-1.98-0.76l-4.858-10.907l-9.566,4.404l2.885,6.451
			c0.338,0.756-0.001,1.643-0.757,1.982C36.576,60.477,36.368,60.519,36.164,60.519z"/>
		<path id="path-4_14_" d="M28.379,60.502H15.958c-0.828,0-1.073-0.671-1.073-1.5V47.631c0-0.734,0.319-1.361,1.044-1.48
			l16.248-2.679c0.508-0.083,0.966,0.098,1.307,0.479c0.342,0.382,0.438,0.912,0.3,1.405l-3.947,14.05
			C29.656,60.054,29.052,60.502,28.379,60.502z M17.885,57.502h9.357l3.207-10.689l-12.564,2.093V57.502z"/>
		<path id="path-5_11_" d="M39.385,49.002c-0.828,0-1.5-0.671-1.5-1.5v-8h-11v5c0,0.829-0.672,1.5-1.5,1.5
			c-0.828,0-1.5-0.671-1.5-1.5v-6.5c0-0.829,0.245-1.5,1.073-1.5h14c0.829,0,1.927,0.671,1.927,1.5v9.5
			C40.885,48.331,40.213,49.002,39.385,49.002z"/>
	</g>
</g>
<g>
</g>
<g>
</g>
<g>
</g>
<g>
</g>
<g>
</g>
<g>
</g>
<g>
</g>
<g>
</g>
<g>
</g>
<g>
</g>
<g>
</g>
<g>
</g>
<g>
</g>
<g>
</g>
<g>
</g>
</svg>
