<svg width="20" height="19" viewBox="0 0 20 19" fill="none" xmlns="http://www.w3.org/2000/svg">
<path d="M18.0288 0.486826H1.5024C1.29895 0.486826 1.10724 0.525951 0.927265 0.6042C0.747289 0.682451 0.586877 0.792002 0.446026 0.932852C0.305176 1.0737 0.195625 1.23412 0.117375 1.41409C0.0391251 1.59407 0 1.78578 0 1.98923V14.0085C0 14.2119 0.0391251 14.4036 0.117375 14.5836C0.195625 14.7636 0.305176 14.924 0.446026 15.0648C0.586877 15.2057 0.747289 15.3152 0.927265 15.3935C1.10724 15.4717 1.29895 15.5109 1.5024 15.5109H7.08947L8.4745 17.8349C8.5371 17.9444 8.61535 18.0423 8.70925 18.1283C8.80315 18.2144 8.9127 18.2887 9.0379 18.3513C9.14745 18.4296 9.26482 18.4844 9.39002 18.5157C9.51522 18.547 9.64042 18.5626 9.76562 18.5626C9.89083 18.5626 10.016 18.547 10.1412 18.5157C10.2664 18.4844 10.3838 18.4296 10.4934 18.3513C10.6186 18.2887 10.7281 18.2144 10.822 18.1283C10.9159 18.0423 10.9942 17.9444 11.0568 17.8349L12.4418 15.5109H18.0288C18.2323 15.5109 18.424 15.4717 18.604 15.3935C18.784 15.3152 18.9444 15.2057 19.0852 15.0648C19.2261 14.924 19.3356 14.7636 19.4139 14.5836C19.4921 14.4036 19.5312 14.2119 19.5312 14.0085V1.98923C19.5312 1.78578 19.4921 1.59407 19.4139 1.41409C19.3356 1.23412 19.2261 1.0737 19.0852 0.932852C18.9444 0.792002 18.784 0.682451 18.604 0.6042C18.424 0.525951 18.2323 0.486826 18.0288 0.486826ZM12.7704 10.2525H6.76082C6.66692 10.2525 6.57302 10.2329 6.47912 10.1938C6.38522 10.1546 6.29914 10.1038 6.22089 10.0412C6.15829 9.96292 6.10743 9.87685 6.0683 9.78295C6.02918 9.68905 6.00962 9.59515 6.00962 9.50125C6.00962 9.40735 6.02918 9.31345 6.0683 9.21955C6.10743 9.12565 6.15829 9.03957 6.22089 8.96132C6.29914 8.89872 6.38522 8.84786 6.47912 8.80873C6.57302 8.76961 6.66692 8.75005 6.76082 8.75005H12.7704C12.8643 8.75005 12.9582 8.76961 13.0521 8.80873C13.146 8.84786 13.2321 8.89872 13.3104 8.96132C13.373 9.03957 13.4238 9.12565 13.4629 9.21955C13.5021 9.31345 13.5216 9.40735 13.5216 9.50125C13.5216 9.59515 13.5021 9.68905 13.4629 9.78295C13.4238 9.87685 13.373 9.96292 13.3104 10.0412C13.2321 10.1038 13.146 10.1546 13.0521 10.1938C12.9582 10.2329 12.8643 10.2525 12.7704 10.2525ZM12.7704 7.24764H6.76082C6.66692 7.24764 6.57302 7.22808 6.47912 7.18896C6.38522 7.14983 6.29914 7.09897 6.22089 7.03637C6.15829 6.95812 6.10743 6.87204 6.0683 6.77814C6.02918 6.68424 6.00962 6.59034 6.00962 6.49644C6.00962 6.40254 6.02918 6.30864 6.0683 6.21474C6.10743 6.12084 6.15829 6.03477 6.22089 5.95651C6.29914 5.89391 6.38522 5.84305 6.47912 5.80393C6.57302 5.7648 6.66692 5.74524 6.76082 5.74524H12.7704C12.8643 5.74524 12.9582 5.7648 13.0521 5.80393C13.146 5.84305 13.2321 5.89391 13.3104 5.95651C13.373 6.03477 13.4238 6.12084 13.4629 6.21474C13.5021 6.30864 13.5216 6.40254 13.5216 6.49644C13.5216 6.59034 13.5021 6.68424 13.4629 6.77814C13.4238 6.87204 13.373 6.95812 13.3104 7.03637C13.2321 7.09897 13.146 7.14983 13.0521 7.18896C12.9582 7.22808 12.8643 7.24764 12.7704 7.24764Z" fill="#2EBB77"/>
</svg>
