<svg width="26" height="26" viewBox="0 0 26 26" fill="none" xmlns="http://www.w3.org/2000/svg">
<path d="M17.5826 5.73257C17.0036 5.05962 16.3893 4.42188 15.7398 3.81936C15.0904 3.21683 14.4057 2.65734 13.6858 2.14089C13.6232 2.09394 13.5567 2.05873 13.4862 2.03525C13.4158 2.01177 13.3415 2.00004 13.2632 2.00004C13.185 2.00004 13.1106 2.01177 13.0402 2.03525C12.9698 2.05873 12.9033 2.09394 12.8407 2.14089C12.1208 2.65734 11.4361 3.21683 10.7866 3.81936C10.1371 4.42188 9.52286 5.05962 8.94381 5.73257C8.30216 6.46812 7.73093 7.21933 7.23013 7.98618C6.74498 8.73738 6.33808 9.49249 6.00943 10.2515C5.68078 11.0105 5.43038 11.7735 5.25823 12.5403C5.08608 13.2915 5 14.0349 5 14.7705C5 15.866 5.21128 16.9184 5.63383 17.9279C6.05638 18.9373 6.65108 19.8333 7.41793 20.6158C8.20043 21.3826 9.0964 21.9773 10.1058 22.3999C11.1153 22.8224 12.1677 23.0337 13.2632 23.0337C14.3587 23.0337 15.4112 22.8224 16.4206 22.3999C17.43 21.9773 18.326 21.3826 19.1085 20.6158C19.8754 19.8333 20.4701 18.9373 20.8926 17.9279C21.3152 16.9184 21.5264 15.866 21.5264 14.7705C21.5264 14.0349 21.4404 13.2915 21.2682 12.5403C21.0961 11.7735 20.8457 11.0105 20.517 10.2515C20.1884 9.49249 19.7815 8.73738 19.2963 7.98618C18.7955 7.21933 18.2243 6.46812 17.5826 5.73257ZM6.5024 14.7705C6.5024 13.4246 6.7841 12.1491 7.34751 10.944C7.89526 9.73898 8.54473 8.6513 9.29594 7.681C10.0471 6.7107 10.7983 5.88125 11.5495 5.19265C12.3007 4.50404 12.872 4.00324 13.2632 3.69024V21.5313C12.3712 21.5313 11.5104 21.3591 10.681 21.0148C9.85151 20.6705 9.11596 20.1854 8.47431 19.5594C7.84831 18.9177 7.36316 18.1822 7.01886 17.3527C6.67455 16.5233 6.5024 15.6625 6.5024 14.7705Z" fill="#2EBB77"/>
</svg>
