<svg width="25" height="25" viewBox="0 0 25 25" fill="none" xmlns="http://www.w3.org/2000/svg">
<path d="M21.6063 4.35504C21.5437 4.32374 21.4811 4.30417 21.4185 4.29635C21.3559 4.28852 21.2855 4.28461 21.2072 4.28461C21.1446 4.30026 21.0781 4.31982 21.0077 4.3433C20.9373 4.36677 20.8786 4.39416 20.8316 4.42546C19.5014 5.42706 18.2415 5.80658 17.0521 5.564C15.8627 5.32143 14.6186 4.91844 13.3196 4.35504C12.6623 4.07334 11.9815 3.79946 11.2773 3.53341C10.573 3.26736 9.84529 3.09912 9.09409 3.0287C8.34289 2.95827 7.56038 3.01696 6.74658 3.20476C5.94843 3.39256 5.13463 3.79946 4.30518 4.42546H4.2817L4.25823 4.47241L4.1878 4.54284L4.16433 4.56631L4.14085 4.58979C4.14085 4.58979 4.13694 4.5937 4.12911 4.60152C4.12129 4.60935 4.11738 4.61326 4.11738 4.61326L4.0939 4.66021C4.0939 4.66021 4.0939 4.66413 4.0939 4.67195C4.0939 4.67978 4.0939 4.68369 4.0939 4.68369C4.07825 4.69934 4.07043 4.70716 4.07043 4.70716C4.07043 4.70716 4.07043 4.71499 4.07043 4.73064C4.05478 4.73064 4.04695 4.73455 4.04695 4.74237C4.04695 4.7502 4.04695 4.75411 4.04695 4.75411C4.04695 4.76976 4.04695 4.77759 4.04695 4.77759C4.04695 4.77759 4.04695 4.78541 4.04695 4.80106C4.04695 4.80106 4.04304 4.80498 4.03521 4.8128C4.02739 4.82063 4.02348 4.82454 4.02348 4.82454C4.02348 4.82454 4.02348 4.82845 4.02348 4.83628C4.02348 4.8441 4.02348 4.84801 4.02348 4.84801C4.02348 4.86366 4.01956 4.8754 4.01174 4.88323C4.00391 4.89105 4 4.89496 4 4.89496V4.94191C4 4.94191 4 4.94583 4 4.95365C4 4.96148 4 4.97321 4 4.98886V20.8111C4 20.905 4.01956 20.9989 4.05869 21.0928C4.09781 21.1867 4.14868 21.2727 4.21128 21.351C4.28953 21.4136 4.3756 21.4644 4.4695 21.5036C4.5634 21.5427 4.6573 21.5623 4.7512 21.5623C4.8451 21.5623 4.939 21.5427 5.0329 21.5036C5.1268 21.4644 5.21288 21.4136 5.29113 21.351C5.35373 21.2727 5.40459 21.1867 5.44372 21.0928C5.48284 20.9989 5.5024 20.905 5.5024 20.8111V16.6794C6.77006 15.8343 7.97511 15.5409 9.11756 15.7991C10.26 16.0574 11.4572 16.4603 12.7092 17.0081C13.4761 17.3211 14.2703 17.6224 15.092 17.9119C15.9136 18.2014 16.7704 18.3462 17.6625 18.3462C18.3041 18.3462 18.9654 18.2405 19.6461 18.0293C20.3269 17.818 21.0194 17.4463 21.7237 16.9142C21.7706 16.8672 21.8137 16.8242 21.8528 16.7851C21.8919 16.746 21.9271 16.6951 21.9584 16.6325C21.9741 16.5855 21.9897 16.5347 22.0054 16.4799C22.021 16.4251 22.0288 16.3664 22.0288 16.3038V5.03581C22.0288 4.97321 22.021 4.9067 22.0054 4.83628C21.9897 4.76585 21.9584 4.69934 21.9115 4.63674C21.8802 4.57414 21.8371 4.51936 21.7824 4.47241C21.7276 4.42546 21.6689 4.38634 21.6063 4.35504Z" fill="#2EBB77"/>
</svg>
