<svg width="60" height="61" viewBox="0 0 60 61" fill="none" xmlns="http://www.w3.org/2000/svg">
<mask id="mask0_8360_23749" style="mask-type:luminance" maskUnits="userSpaceOnUse" x="0" y="0" width="60" height="61">
<path d="M60 0.189941H0V60.1899H60V0.189941Z" fill="white"/>
</mask>
<g mask="url(#mask0_8360_23749)">
<path d="M30.0001 13.3736C33.9802 13.3736 37.3543 10.3977 37.8489 6.45162C37.8803 6.20143 37.8026 5.94982 37.6358 5.76069C37.4689 5.57166 37.2289 5.46338 36.9768 5.46338H23.0235C22.7714 5.46338 22.5313 5.57166 22.3644 5.76069C22.1976 5.94971 22.12 6.20143 22.1514 6.45162C22.6459 10.3977 26.0201 13.3736 30.0001 13.3736ZM35.8974 7.22119C35.134 9.78506 32.7534 11.6157 30.0001 11.6157C27.2468 11.6157 24.8663 9.78506 24.1029 7.22119H35.8974Z" fill="#2EBB77"/>
<path d="M59.4574 10.5833L39.2554 2.21541C38.8407 2.04338 38.3865 1.94775 37.9101 1.94775H22.0899C21.6135 1.94775 21.1593 2.04338 20.7447 2.21577L0.542578 10.5833C0.214101 10.7193 0 11.0398 0 11.3953V25.5201C0 26.0055 0.393516 26.3989 0.878906 26.3989H11.5431L11.543 57.5532C11.543 57.7863 11.6355 58.0098 11.8005 58.1748C11.9652 58.3395 12.1888 58.4321 12.4219 58.4321H47.5779C48.0633 58.4321 48.4568 58.0388 48.4568 57.5532V47.8852H52.8513C53.3367 47.8852 53.7303 47.4919 53.7303 47.0063L53.7304 30.7935C53.7304 30.5604 53.6379 30.3369 53.473 30.1719L49.7001 26.3989H59.1211C59.6065 26.3989 60 26.0055 60 25.5201V11.3953C60 11.0398 59.7859 10.7193 59.4574 10.5833ZM37.9101 3.70557C38.8794 3.70557 39.668 4.49412 39.668 5.46338C39.668 10.7943 35.331 15.1313 30 15.1313C24.669 15.1313 20.332 10.7943 20.332 5.46338C20.332 4.49412 21.1206 3.70557 22.0899 3.70557H37.9101ZM51.9724 46.1275H43.1834L43.1836 31.1576L47.5781 26.763L51.9727 31.1576L51.9724 46.1275ZM58.2422 24.6411H48.4569L48.4571 10.511C48.4571 10.0256 48.0636 9.63206 47.5782 9.63206C47.0929 9.63206 46.6994 10.0256 46.6994 10.511L46.6991 25.156L41.6832 30.1719C41.5184 30.3368 41.4258 30.5602 41.4258 30.7935L41.4255 47.0063C41.4255 47.2395 41.5181 47.4629 41.683 47.6279C41.8478 47.7927 42.0714 47.8852 42.3045 47.8852H46.6989V56.6743H13.3008L13.3009 10.511C13.3009 10.0255 12.9074 9.63206 12.422 9.63206C11.9366 9.63206 11.5431 10.0255 11.5431 10.511V24.6411H1.75781V11.9825L18.6051 5.00401C18.5854 5.15447 18.5742 5.30752 18.5742 5.46327C18.5742 11.7635 23.6997 16.8891 30 16.8891C36.3003 16.8891 41.4258 11.7635 41.4258 5.46327C41.4258 5.30752 41.4146 5.15447 41.3949 5.00401L58.2422 11.9826V24.6411Z" fill="#2EBB77"/>
</g>
</svg>
