<svg width="60" height="61" viewBox="0 0 60 61" fill="none" xmlns="http://www.w3.org/2000/svg">
<mask id="mask0_8360_23762" style="mask-type:luminance" maskUnits="userSpaceOnUse" x="0" y="0" width="60" height="61">
<path d="M60 0.189941H0V60.1899H60V0.189941Z" fill="white"/>
</mask>
<g mask="url(#mask0_8360_23762)">
<path d="M57.6247 13.4288L30.3823 0.277305C30.1408 0.16082 29.8596 0.16082 29.6181 0.277305L2.37567 13.4288C2.07192 13.5754 1.87891 13.883 1.87891 14.2203V46.1596C1.87891 46.4969 2.07192 46.8045 2.37567 46.9511L29.618 60.1026C29.7387 60.1609 29.8695 60.19 30.0001 60.19C30.1309 60.19 30.2615 60.1609 30.3823 60.1026L57.6247 46.9511C57.9284 46.8045 58.1214 46.4969 58.1214 46.1596V14.2204C58.1214 13.8829 57.9283 13.5755 57.6247 13.4288ZM30.0001 2.04484L55.2209 14.2203L47.9099 17.7498C47.8636 17.7145 47.8147 17.6819 47.7611 17.656L22.7117 5.5634L30.0001 2.04484ZM20.7268 6.55715L45.9109 18.7149L40.7528 21.205L15.5791 9.05217L20.7268 6.55715ZM46.5001 20.3822V29.5868L41.6821 31.9128V22.7082L46.5001 20.3822ZM56.3636 45.6081L30.8791 57.9107V27.9234L36.9579 24.9888C37.3951 24.7777 37.5783 24.2523 37.3673 23.8151C37.1562 23.3781 36.6308 23.1946 36.1936 23.4058L30.0001 26.3959L27.5631 25.2193C27.1259 25.008 26.6005 25.1915 26.3895 25.6286C26.1784 26.0657 26.3617 26.5912 26.7988 26.8022L29.1212 27.9234V57.9107L3.63673 45.6078V15.6205L23.043 24.9891C23.1661 25.0486 23.2963 25.0768 23.4244 25.0768C23.7511 25.0768 24.0649 24.8937 24.2165 24.5797C24.4275 24.1427 24.2443 23.6172 23.8071 23.4061L4.77942 14.2203L13.5104 10.0053L39.9121 22.7509C39.916 22.7563 39.9203 22.7611 39.9243 22.7664V33.3132C39.9243 33.6157 40.0798 33.8968 40.336 34.0577C40.4782 34.1469 40.6405 34.1921 40.8033 34.1921C40.9336 34.1921 41.0643 34.1631 41.1853 34.1047L47.7611 30.9301C48.0649 30.7836 48.2579 30.476 48.2579 30.1387V19.5338L56.3636 15.6206V45.6081Z" fill="#2EBB77"/>
<path d="M10.888 42.1993L6.89017 40.2694C6.45282 40.0581 5.92759 40.2416 5.71653 40.6787C5.50548 41.1158 5.68876 41.6413 6.12587 41.8523L10.1237 43.7823C10.2469 43.8419 10.3771 43.87 10.5051 43.87C10.8319 43.87 11.1457 43.6869 11.2972 43.373C11.5084 42.9358 11.3251 42.4105 10.888 42.1993Z" fill="#2EBB77"/>
<path d="M14.5696 39.8044L6.89791 36.1008C6.46068 35.8898 5.93533 36.073 5.72427 36.5103C5.51333 36.9474 5.69661 37.4728 6.13372 37.6838L13.8054 41.3875C13.9286 41.4469 14.0588 41.4752 14.1868 41.4752C14.5136 41.4752 14.8274 41.2921 14.9789 40.9781C15.1899 40.5408 15.0067 40.0154 14.5696 39.8044Z" fill="#2EBB77"/>
</g>
</svg>
