<svg width="11" height="6" viewBox="0 0 11 6" fill="" xmlns="http://www.w3.org/2000/svg">
<path d="M0.140625 0.140625C0.244792 0.046875 0.364583 0 0.5 0C0.635417 0 0.755208 0.046875 0.859375 0.140625L5.5 4.79688L10.1406 0.140625C10.2448 0.046875 10.3646 0 10.5 0C10.6354 0 10.7552 0.046875 10.8594 0.140625C10.9531 0.244792 11 0.364583 11 0.5C11 0.635417 10.9531 0.755208 10.8594 0.859375L5.85938 5.85938C5.75521 5.95312 5.63542 6 5.5 6C5.36458 6 5.24479 5.95312 5.14062 5.85938L0.140625 0.859375C0.046875 0.755208 0 0.635417 0 0.5C0 0.364583 0.046875 0.244792 0.140625 0.140625Z" fill=""/>
</svg>
