<svg width="26" height="26" viewBox="0 0 26 26" fill="none" xmlns="http://www.w3.org/2000/svg">
<path d="M21.503 12.3643C21.4873 12.3017 21.4678 12.243 21.4443 12.1882C21.4208 12.1335 21.3856 12.0826 21.3386 12.0356C21.2917 11.9887 21.2447 11.9457 21.1978 11.9065C21.1508 11.8674 21.0961 11.84 21.0335 11.8244L15.6342 9.80551L16.9958 2.90385C17.0114 2.8256 17.0153 2.74734 17.0075 2.6691C16.9997 2.59085 16.9801 2.51259 16.9488 2.43435C16.9175 2.37174 16.8706 2.30914 16.808 2.24654C16.7454 2.18394 16.6828 2.13699 16.6202 2.10569C16.5419 2.05874 16.4637 2.02744 16.3854 2.01179C16.3072 1.99614 16.2289 1.99614 16.1507 2.01179C16.0724 2.02744 15.9942 2.05483 15.9159 2.09396C15.8377 2.13308 15.7751 2.18394 15.7281 2.24654L5.21128 13.5146C5.16433 13.5615 5.1252 13.6124 5.0939 13.6672C5.0626 13.7219 5.03913 13.7806 5.02348 13.8432C5.00783 13.8902 5 13.9449 5 14.0075C5 14.0701 5.00783 14.1327 5.02348 14.1953C5.03913 14.2579 5.05869 14.3166 5.08216 14.3714C5.10564 14.4262 5.14085 14.4771 5.1878 14.524C5.23475 14.571 5.2817 14.614 5.32865 14.6531C5.3756 14.6922 5.43038 14.7196 5.49298 14.7353L10.8922 16.7541L9.53069 23.6558C9.51504 23.734 9.51112 23.8123 9.51895 23.8905C9.52677 23.9688 9.54634 24.0471 9.57764 24.1253C9.60894 24.1879 9.65589 24.2505 9.71849 24.3131C9.78109 24.3757 9.84369 24.4227 9.90629 24.454C9.96889 24.4853 10.0276 24.5087 10.0824 24.5244C10.1371 24.54 10.1958 24.5479 10.2584 24.5479C10.3054 24.5479 10.3562 24.5439 10.411 24.5361C10.4658 24.5283 10.5166 24.5087 10.5636 24.4774C10.6105 24.4618 10.6536 24.4383 10.6927 24.407C10.7318 24.3757 10.767 24.3444 10.7983 24.3131L21.3152 13.0451C21.3621 12.9981 21.4012 12.9473 21.4325 12.8925C21.4638 12.8377 21.4873 12.779 21.503 12.7164C21.5186 12.6695 21.5264 12.6147 21.5264 12.5521C21.5264 12.4895 21.5186 12.4269 21.503 12.3643Z" fill="#2EBB77"/>
</svg>
